<?xml version="1.0" encoding="utf-8"?>
<!-- Generator: Adobe Illustrator 25.4.1, SVG Export Plug-In . SVG Version: 6.00 Build 0)  -->
<svg version="1.1" id="Layer_1" xmlns="http://www.w3.org/2000/svg" xmlns:xlink="http://www.w3.org/1999/xlink" x="0px" y="0px"
	 viewBox="0 0 65 131" style="enable-background:new 0 0 65 131;" xml:space="preserve">
<style type="text/css">
	.st0{fill:#FFFFFF;}
</style>
<g>
	<rect x="6.16" y="82.95" class="st0" width="22.13" height="19.05"/>
	<rect x="35.61" y="79.34" class="st0" width="24.15" height="51.09"/>
	<rect x="5.34" y="78.07" class="st0" width="24.15" height="2.53"/>
	<rect x="36.63" y="55.59" class="st0" width="22.13" height="19.05"/>
	<rect x="35.61" y="50.71" class="st0" width="24.15" height="2.53"/>
	<rect x="2.39" y="104.16" class="st0" width="30.05" height="4.73"/>
	<rect x="32.66" y="76.97" class="st0" width="30.05" height="4.73"/>
	<rect x="6.16" y="111.05" class="st0" width="22.13" height="20.1"/>
	<rect x="6.35" y="116.78" class="st0" width="56.37" height="14.37"/>
	<g>
		<path class="st0" d="M31.29,61.29c0,0-6.59-5.06-8.61-8.23c0,0-2.91-4.38-5.45-11.53c-2.53,7.15-5.45,11.53-5.45,11.53
			c-2.03,3.17-8.61,8.23-8.61,8.23c-7.73,8.19,0.76,14.57,0.76,14.57h13.3h13.3C30.53,75.86,39.02,69.48,31.29,61.29z"/>
		<rect x="16.53" y="28.23" class="st0" width="1.39" height="16.85"/>
		
			<rect x="16.53" y="28.38" transform="matrix(-1.836970e-16 1 -1 -1.836970e-16 49.6328 15.1786)" class="st0" width="1.39" height="8.04"/>
	</g>
	<g>
		<path class="st0" d="M61.75,33.93c0,0-6.59-5.06-8.61-8.23c0,0-2.91-4.38-5.45-11.53c-2.53,7.15-5.45,11.53-5.45,11.53
			c-2.03,3.17-8.61,8.23-8.61,8.23c-7.73,8.19,0.76,14.57,0.76,14.57h13.3h13.3C60.99,48.5,69.48,42.12,61.75,33.93z"/>
		<rect x="46.99" y="0.86" class="st0" width="1.39" height="16.85"/>
		
			<rect x="46.99" y="1.02" transform="matrix(-1.836970e-16 1 -1 -1.836970e-16 52.7351 -42.6474)" class="st0" width="1.39" height="8.04"/>
	</g>
</g>
</svg>
