<?xml version="1.0" encoding="utf-8"?>
<!-- Generator: Adobe Illustrator 25.4.1, SVG Export Plug-In . SVG Version: 6.00 Build 0)  -->
<svg version="1.1" id="Layer_1" xmlns="http://www.w3.org/2000/svg" xmlns:xlink="http://www.w3.org/1999/xlink" x="0px" y="0px"
	 viewBox="0 0 63 155" style="enable-background:new 0 0 63 155;" xml:space="preserve">
<style type="text/css">
	.st0{fill:#FFFFFF;}
</style>
<g>
	<rect x="9.51" y="146.4" class="st0" width="44.1" height="7.68"/>
	<rect x="17.71" y="130.25" class="st0" width="27.72" height="14.99"/>
	<path class="st0" d="M60.93,119.92c-13.36,5.2-16.38-3.74-16.38-3.74H31.57H18.59c0,0-3.02,8.93-16.38,3.74l-2.02,4.95
		c0,0,12.77,3.9,31.38,4.22c18.61-0.32,31.38-4.22,31.38-4.22L60.93,119.92z"/>
	<rect x="17.71" y="100.04" class="st0" width="27.72" height="14.99"/>
	<path class="st0" d="M60.93,89.7c-13.36,5.2-16.38-3.74-16.38-3.74H31.57H18.59c0,0-3.02,8.93-16.38,3.74l-2.02,4.95
		c0,0,12.77,3.9,31.38,4.22c18.61-0.32,31.38-4.22,31.38-4.22L60.93,89.7z"/>
	<rect x="17.71" y="69.82" class="st0" width="27.72" height="14.99"/>
	<path class="st0" d="M60.93,59.49c-13.36,5.2-16.38-3.74-16.38-3.74H31.57H18.59c0,0-3.02,8.93-16.38,3.74l-2.02,4.95
		c0,0,12.77,3.9,31.38,4.22c18.61-0.32,31.38-4.22,31.38-4.22L60.93,59.49z"/>
	<rect x="17.71" y="39.61" class="st0" width="27.72" height="14.99"/>
	<path class="st0" d="M60.93,29.27c-13.36,5.2-16.38-3.74-16.38-3.74H31.57H18.59c0,0-3.02,8.93-16.38,3.74l-2.02,4.95
		c0,0,12.77,3.9,31.38,4.22c18.61-0.32,31.38-4.22,31.38-4.22L60.93,29.27z"/>
	<polygon class="st0" points="28.79,27.61 31.57,0.93 34.34,27.61 	"/>
</g>
</svg>
