<?xml version="1.0" encoding="utf-8"?>
<!-- Generator: Adobe Illustrator 25.4.1, SVG Export Plug-In . SVG Version: 6.00 Build 0)  -->
<svg version="1.1" id="Layer_1" xmlns="http://www.w3.org/2000/svg" xmlns:xlink="http://www.w3.org/1999/xlink" x="0px" y="0px"
	 viewBox="0 0 80 80" style="enable-background:new 0 0 80 80;" xml:space="preserve">
<style type="text/css">
	.st0{fill:#FFFFFF;}
</style>
<g>
	<path class="st0" d="M17.6,36.9c0-4.8,3.9-8.7,8.7-8.7h35.1L54,13.3c-2.1-4.3-7.4-6-11.7-3.9L4.7,28.2c-4.3,2.1-6,7.4-3.9,11.7
		L10.9,60c1.6,3.3,5.1,5.1,8.6,4.8c-1.2-1.5-1.9-3.4-1.9-5.4V36.9z"/>
	<path class="st0" d="M71.4,30.8h-42c-4.8,0-8.7,3.9-8.7,8.7V62c0,2,0.7,3.9,1.9,5.4c1.6,2,4,3.3,6.8,3.3h42c4.8,0,8.7-3.9,8.7-8.7
		V39.5C80.1,34.7,76.2,30.8,71.4,30.8z M75.3,62c0,2.1-1.7,3.9-3.9,3.9h-42c-1.2,0-2.3-0.5-3-1.5c-0.4-0.5-0.8-1.3-0.8-2.4V39.5
		c0-2.1,1.7-3.9,3.9-3.9h42c2.1,0,3.9,1.7,3.9,3.9V62z"/>
	<rect x="24.3" y="40.6" class="st0" width="53.7" height="7.4"/>
	<circle class="st0" cx="33.4" cy="59.1" r="4.8"/>
	<circle class="st0" cx="40.2" cy="59.1" r="4.8"/>
</g>
</svg>
