<?xml version="1.0" encoding="utf-8"?>
<!-- Generator: Adobe Illustrator 25.4.1, SVG Export Plug-In . SVG Version: 6.00 Build 0)  -->
<svg version="1.1" id="Layer_1" xmlns="http://www.w3.org/2000/svg" xmlns:xlink="http://www.w3.org/1999/xlink" x="0px" y="0px"
	 viewBox="0 0 40 30" style="enable-background:new 0 0 40 30;" xml:space="preserve">
<style type="text/css">
	.st0{fill:#DDDDDD;}
	.st1{fill:none;stroke:#29ABE2;stroke-linecap:round;stroke-linejoin:round;stroke-miterlimit:10;}
</style>
<path class="st0" d="M31,6.4C30.2,3.9,27.8,2,25,2c-2,0-3.8,1-5,2.5C18.9,3,17.1,2,15,2c-2.8,0-5.2,1.9-6,4.4c-3,0.4-5.3,3-5.3,6.2
	c0,3.4,2.8,6.2,6.2,6.2h20c3.4,0,6.2-2.8,6.2-6.2C36.2,9.5,34,6.9,31,6.4z"/>
<line class="st1" x1="15.8" y1="16.3" x2="15.8" y2="27.1"/>
<line class="st1" x1="24" y1="16.3" x2="24" y2="27.1"/>
<line class="st1" x1="19.9" y1="16.3" x2="19.9" y2="27.1"/>
</svg>
