<?xml version="1.0" encoding="utf-8"?>
<!-- Generator: Adobe Illustrator 25.4.1, SVG Export Plug-In . SVG Version: 6.00 Build 0)  -->
<svg version="1.1" id="Layer_1" xmlns="http://www.w3.org/2000/svg" xmlns:xlink="http://www.w3.org/1999/xlink" x="0px" y="0px"
	 viewBox="0 0 80 80" style="enable-background:new 0 0 80 80;" xml:space="preserve">
<style type="text/css">
	.st0{fill:#FFFFFF;}
</style>
<path class="st0" d="M74.3,66c-0.4-0.7-0.9-1-0.9-1l-29-24.5l2-2.3l0.1,0.1C75,34.5,75,4.9,75,4.9L45.3,32.6L40.1,37l-4.4-3.7
	c0.9-1.6,1.5-3.4,1.5-5.3c0-3.5-1.8-6.7-4.5-8.5l-13-13c-0.9-0.9-2.3-0.9-3.2,0c-0.9,0.9-0.9,2.3,0,3.2l8.2,8.2c0,0,0,0,0,0l2.4,2.4
	c0.7,0.7,0.7,1.8,0,2.5l-0.2,0.2c-0.5,0.5-1.3,0.6-1.9,0.4l-11-11c-0.9-0.9-2.3-0.9-3.2,0c-0.9,0.9-0.9,2.3,0,3.2l10.8,10.8
	c0.2,0.6,0.1,1.3-0.4,1.8L21,28.2c-0.5,0.5-1.3,0.6-1.9,0.4L8.3,17.8c-0.9-0.9-2.3-0.9-3.2,0c-0.9,0.9-0.9,2.3,0,3.2l13.7,13.7
	c0.1,0.1,0.3,0.2,0.4,0.3c1.9,2,4.6,3.3,7.6,3.3c2.1,0,4-0.6,5.6-1.7l3.4,3.9L6.8,65c0,0-0.4,0.3-0.9,1c-0.8,1.1-1.3,2.4-1.3,3.9
	c0,3.5,2.7,6.3,6.1,6.3c2,0,3.8-1,4.9-2.6l24.4-28.1l24.4,28.1c1.1,1.6,2.9,2.6,4.9,2.6c3.4,0,6.1-2.8,6.1-6.3
	C75.6,68.4,75.1,67.1,74.3,66z"/>
</svg>
