<?xml version="1.0" encoding="utf-8"?>
<!-- Generator: Adobe Illustrator 25.4.1, SVG Export Plug-In . SVG Version: 6.00 Build 0)  -->
<svg version="1.1" id="Layer_1" xmlns="http://www.w3.org/2000/svg" xmlns:xlink="http://www.w3.org/1999/xlink" x="0px" y="0px"
	 viewBox="0 0 80 80" style="enable-background:new 0 0 80 80;" xml:space="preserve">
<style type="text/css">
	.st0{fill:none;}
	.st1{fill:#8FCDE2;}
	.st2{fill:#29ABE2;}
</style>
<path class="st0" d="M22.6,57.4c4.5,4.5,10.6,7.2,17.4,7.2V40L22.6,57.4z"/>
<path class="st0" d="M40,64.6c6.8,0,13-2.8,17.4-7.2L40,40V64.6z"/>
<path class="st0" d="M15.4,40L15.4,40c0,6.8,2.8,13,7.2,17.4L40,40H15.4z"/>
<path class="st0" d="M22.6,22.6C18.1,27,15.4,33.2,15.4,40H40L22.6,22.6z"/>
<path class="st0" d="M57.4,22.6C53,18.1,46.8,15.4,40,15.4V40L57.4,22.6z"/>
<path class="st0" d="M40,15.4c-6.8,0-13,2.8-17.4,7.2L40,40V15.4z"/>
<path class="st0" d="M40,40h24.6c0-6.8-2.8-13-7.2-17.4L40,40z"/>
<path class="st0" d="M57.4,57.4c4.5-4.5,7.2-10.6,7.2-17.4v0H40L57.4,57.4z"/>
<g>
	<path class="st1" d="M40,64.6v14.7c10.9,0,20.7-4.4,27.8-11.5L57.4,57.4C53,61.9,46.8,64.6,40,64.6z"/>
</g>
<g>
	<path class="st2" d="M22.6,57.4L12.2,67.8c7.1,7.1,16.9,11.5,27.8,11.5V64.6C33.2,64.6,27,61.9,22.6,57.4z"/>
</g>
<g>
	<path class="st2" d="M79.3,40H64.6v0c0,6.8-2.8,13-7.2,17.4l10.4,10.4C74.9,60.7,79.3,50.9,79.3,40L79.3,40z"/>
</g>
<g>
	<path class="st2" d="M40,15.4V0.7c-10.9,0-20.7,4.4-27.8,11.5l10.4,10.4C27,18.1,33.2,15.4,40,15.4z"/>
</g>
<g>
	<path class="st2" d="M64.6,40h14.7c0-10.9-4.4-20.7-11.5-27.8L57.4,22.6C61.9,27,64.6,33.2,64.6,40z"/>
</g>
<g>
	<path class="st2" d="M15.4,40L15.4,40L0.7,40v0c0,10.9,4.4,20.7,11.5,27.8l10.4-10.4C18.1,53,15.4,46.8,15.4,40z"/>
</g>
<g>
	<path class="st2" d="M57.4,22.6l10.4-10.4C60.7,5.1,50.9,0.7,40,0.7v14.7C46.8,15.4,53,18.1,57.4,22.6z"/>
</g>
<g>
	<path class="st2" d="M22.6,22.6L12.2,12.2C5.1,19.3,0.7,29.1,0.7,40h14.7C15.4,33.2,18.1,27,22.6,22.6z"/>
</g>
</svg>
