<?xml version="1.0" encoding="utf-8"?>
<!-- Generator: Adobe Illustrator 25.4.1, SVG Export Plug-In . SVG Version: 6.00 Build 0)  -->
<svg version="1.1" id="Layer_1" xmlns="http://www.w3.org/2000/svg" xmlns:xlink="http://www.w3.org/1999/xlink" x="0px" y="0px"
	 viewBox="0 0 97 113" style="enable-background:new 0 0 97 113;" xml:space="preserve">
<style type="text/css">
	.st0{fill:#FFFFFF;}
</style>
<g>
	<g>
		<path class="st0" d="M0.46,72.06v40.53h39.53V85.67l7.7-6.42h1.62l7.69,6.42v26.92h39.53V72.06H0.46z M12.82,109.05H5.4V97.44
			l3.72-3.1l3.71,3.1V109.05z M12.82,90.3H5.4V78.69l3.72-3.1l3.71,3.1V90.3z M23.11,109.05h-7.42V97.44l3.71-3.1l3.71,3.1V109.05z
			 M23.11,90.3h-7.42V78.69l3.71-3.1l3.71,3.1V90.3z M80.75,109.35h-7.43V97.73l3.72-3.1l3.71,3.1V109.35z M80.75,90.6h-7.43V78.98
			l3.72-3.09l3.71,3.09V90.6z M91.04,109.35h-7.42V97.73l3.71-3.1l3.71,3.1V109.35z M91.04,90.6h-7.42V78.98l3.71-3.09l3.71,3.09
			V90.6z"/>
		<rect x="29.7" y="55.9" class="st0" width="37.62" height="23.35"/>
	</g>
	<g>
		<path class="st0" d="M12.2,62.25V74.5h14.4V62.25H12.2z M18.45,74.08h-3.92v-8.45l1.96-2.24l1.96,2.24V74.08z M24.26,74.08h-3.91
			v-8.45l1.96-2.24l1.95,2.24V74.08z"/>
		<g>
			<path class="st0" d="M12.2,62.25h7.2V50.76l-1.31,0.63C7.99,55.88,12.2,62.25,12.2,62.25z"/>
			<path class="st0" d="M20.71,51.39l-1.31-0.63v11.49h7.2C26.6,62.25,30.81,55.88,20.71,51.39z"/>
		</g>
		<rect x="18.93" y="33.36" class="st0" width="0.95" height="19.44"/>
		<path class="st0" d="M19.4,45.22L19.4,45.22c-0.93,0-1.69-0.76-1.69-1.69v-2.34c0-0.93,0.76-1.69,1.69-1.69h0
			c0.93,0,1.69,0.76,1.69,1.69v2.34C21.09,44.46,20.33,45.22,19.4,45.22z"/>
	</g>
	<path class="st0" d="M69.85,62.25V74.5h14.4V62.25H69.85z M76.1,74.08h-3.92v-8.45l1.96-2.24l1.96,2.24V74.08z M81.9,74.08h-3.91
		v-8.45l1.96-2.24l1.95,2.24V74.08z"/>
	<g>
		<path class="st0" d="M69.84,62.25h7.2V50.76l-1.31,0.63C65.63,55.88,69.84,62.25,69.84,62.25z"/>
		<path class="st0" d="M78.36,51.39l-1.31-0.63v11.49h7.2C84.24,62.25,88.46,55.88,78.36,51.39z"/>
	</g>
	<rect x="76.57" y="33.36" class="st0" width="0.95" height="19.44"/>
	<path class="st0" d="M77.04,45.22L77.04,45.22c-0.93,0-1.69-0.76-1.69-1.69v-2.34c0-0.93,0.76-1.69,1.69-1.69h0
		c0.93,0,1.69,0.76,1.69,1.69v2.34C78.73,44.46,77.97,45.22,77.04,45.22z"/>
	<rect x="48.03" y="0.41" class="st0" width="0.95" height="19.44"/>
	<path class="st0" d="M48.5,12.27L48.5,12.27c-0.93,0-1.69-0.76-1.69-1.69V8.24c0-0.93,0.76-1.69,1.69-1.69l0,0
		c0.93,0,1.69,0.76,1.69,1.69v2.34C50.19,11.51,49.43,12.27,48.5,12.27z"/>
	<g>
		<path class="st0" d="M29.76,56.51h18.9V18.46l-3.45,2.09C18.7,35.39,29.76,56.51,29.76,56.51z"/>
		<path class="st0" d="M52.1,20.55l-3.45-2.09v38.05h18.9C67.56,56.51,78.62,35.39,52.1,20.55z"/>
	</g>
</g>
</svg>
