<?xml version="1.0" encoding="utf-8"?>
<!-- Generator: Adobe Illustrator 25.4.1, SVG Export Plug-In . SVG Version: 6.00 Build 0)  -->
<svg version="1.1" id="Layer_1" xmlns="http://www.w3.org/2000/svg" xmlns:xlink="http://www.w3.org/1999/xlink" x="0px" y="0px"
	 viewBox="0 0 80 80" style="enable-background:new 0 0 80 80;" xml:space="preserve">
<style type="text/css">
	.st0{fill:#0855B6;}
</style>
<g>
	<g>
		<circle class="st0" cx="24.8" cy="11.4" r="7.8"/>
		<path class="st0" d="M20.8,51.3l-9.9-2c-1.6-0.3-2.7-1.9-2.4-3.5L13,23.3c0.3-1.6,1.9-2.7,3.5-2.4l9.9,2c1.6,0.3,2.7,1.9,2.4,3.5
			L24.3,49C24,50.6,22.4,51.6,20.8,51.3z"/>
		<path class="st0" d="M42.4,38.1L42.4,38.1c-1,1.4-2.9,1.6-4.2,0.7l-13.5-10c-1.3-1-1.6-2.9-0.6-4.2l0,0c1-1.3,2.9-1.6,4.2-0.6
			l13.5,10C43.1,34.9,43.4,36.8,42.4,38.1z"/>
		<path class="st0" d="M17.3,76.4h-2.4c-1.6,0-3-1.3-3-3V47.9c0-1.7,1.4-3,3-3h2.4c1.6,0,3,1.3,3,3v25.6
			C20.3,75.1,19,76.4,17.3,76.4z"/>
	</g>
	<g>
		<circle class="st0" cx="55.2" cy="11.4" r="7.8"/>
		<path class="st0" d="M59.2,51.3l9.9-2c1.6-0.3,2.7-1.9,2.4-3.5L67,23.3c-0.3-1.6-1.9-2.7-3.5-2.4l-9.9,2c-1.6,0.3-2.7,1.9-2.4,3.5
			L55.7,49C56,50.6,57.6,51.6,59.2,51.3z"/>
		<path class="st0" d="M37.6,38.1L37.6,38.1c1,1.4,2.9,1.6,4.2,0.7l13.5-10c1.3-1,1.6-2.9,0.6-4.2l0,0c-1-1.3-2.9-1.6-4.2-0.6
			l-13.5,10C36.9,34.9,36.6,36.8,37.6,38.1z"/>
		<path class="st0" d="M62.7,76.4h2.4c1.7,0,3-1.3,3-3V47.9c0-1.7-1.3-3-3-3h-2.4c-1.7,0-3,1.3-3,3v25.6
			C59.7,75.1,61,76.4,62.7,76.4z"/>
	</g>
</g>
</svg>
