<?xml version="1.0" encoding="utf-8"?>
<!-- Generator: Adobe Illustrator 25.4.1, SVG Export Plug-In . SVG Version: 6.00 Build 0)  -->
<svg version="1.1" id="Layer_1" xmlns="http://www.w3.org/2000/svg" xmlns:xlink="http://www.w3.org/1999/xlink" x="0px" y="0px"
	 viewBox="0 0 76 193" style="enable-background:new 0 0 76 193;" xml:space="preserve">
<style type="text/css">
	.st0{fill:#FFFFFF;}
</style>
<g>
	<path class="st0" d="M64.39,192.55c0.34-1.71,0.52-3.47,0.52-5.27c0-14.76-11.97-26.73-26.73-26.73
		c-14.76,0-26.72,11.97-26.72,26.73c0,1.8,0.18,3.56,0.52,5.27H-0.03c0,0,12.43-37.16,14.13-50.72h49.36c0,0,9.36,47.02,12.94,50.72
		H64.39z"/>
	<path class="st0" d="M15.64,134.51c0,0,6.45-27.23,7.98-35.74h30.13c0,0,4.94,30.81,6.98,35.74H15.64z"/>
	<path class="st0" d="M32.3,43.79h13.62c0,0,6.3,46.3,6.98,48.34H24.98L32.3,43.79z"/>
	<polygon class="st0" points="33.75,37.75 39.88,-0.38 44.9,37.75 	"/>
</g>
</svg>
