<?xml version="1.0" encoding="utf-8"?>
<!-- Generator: Adobe Illustrator 25.4.1, SVG Export Plug-In . SVG Version: 6.00 Build 0)  -->
<svg version="1.1" id="Layer_1" xmlns="http://www.w3.org/2000/svg" xmlns:xlink="http://www.w3.org/1999/xlink" x="0px" y="0px"
	 viewBox="0 0 80 80" style="enable-background:new 0 0 80 80;" xml:space="preserve">
<style type="text/css">
	.st0{fill:#FFFFFF;}
</style>
<path class="st0" d="M76.2,30.4c-1.2-2.5-5-1.1-7-0.2c-1-2.2-2.1-4.8-3.4-7.6c-1-4-4.6-7-8.9-7h-1.4v-7c0-1.3-1-2.3-2.3-2.3H26.5
	c-1.3,0-2.3,1-2.3,2.3v7h-1.4c-4.3,0-7.9,3-8.9,7c-1.3,2.8-2.4,5.2-3.3,7.4c-2-0.9-5.6-2-6.7,0.3c0,0-2.9,5.5,2.3,8.2l0.9,0.3
	c-2.8,8-2.1,9.7-2.1,9.7v20c0,1.9,1.5,3.4,3.4,3.4h6.6c1.9,0,3.4-1.5,3.4-3.4v-5.1h42.9v5.1c0,1.9,1.5,3.4,3.4,3.4h6.6
	c1.9,0,3.4-1.5,3.4-3.4v-20c0-0.1,0-0.3,0-0.4c0.1-0.5,0.2-2.7-2-9.2l1.3-0.4C79.1,36,76.2,30.4,76.2,30.4z M14.8,36.4l5.2-12.7
	c1.5-3.9,5.4-3.8,5.4-3.8h29c0,0,3.9-0.1,5.4,3.8l5.2,12.7c0,0,1.5,2.7-2.1,2.8H16.9C13.3,39,14.8,36.4,14.8,36.4z M26.1,54.6H11.8
	v-7h14.3V54.6z M68.2,54.6H53.9v-7h14.3V54.6z"/>
</svg>
