<?xml version="1.0" encoding="utf-8"?>
<!-- Generator: Adobe Illustrator 25.4.1, SVG Export Plug-In . SVG Version: 6.00 Build 0)  -->
<svg version="1.1" id="Layer_1" xmlns="http://www.w3.org/2000/svg" xmlns:xlink="http://www.w3.org/1999/xlink" x="0px" y="0px"
	 viewBox="0 0 39 114" style="enable-background:new 0 0 39 114;" xml:space="preserve">
<style type="text/css">
	.st0{fill:#FFFFFF;}
</style>
<g>
	<path class="st0" d="M-0.11,81.04v33.32h39.16V81.04H-0.11z M12.05,105.2H7.11v-23h4.94V105.2z M21.94,105.2H17v-23h4.94V105.2z
		 M31.82,105.2h-4.94v-23h4.94V105.2z"/>
	<path class="st0" d="M2.06,58.45v23.19h33.24V58.45H2.06z M12.39,75.26H8.19V59.25h4.19V75.26z M20.78,75.26h-4.19V59.25h4.19
		V75.26z M29.17,75.26h-4.19V59.25h4.19V75.26z"/>
	<path class="st0" d="M3.25,39.85v23.19h29.22V39.85H3.25z M12.32,56.67H8.64V40.65h3.69V56.67z M19.7,56.67h-3.69V40.65h3.69V56.67
		z M27.07,56.67h-3.69V40.65h3.69V56.67z"/>
	<path class="st0" d="M4,17.81v24.17h26.7V17.81H4z M12.29,35.33H8.93V18.65h3.37V35.33z M19.04,35.33h-3.37V18.65h3.37V35.33z
		 M25.77,35.33H22.4V18.65h3.37V35.33z"/>
	<path class="st0" d="M4.86,0.45v19.83h23.46V0.45H4.86z M12.14,14.82H9.18V1.13h2.96V14.82z M18.07,14.82h-2.96V1.13h2.96V14.82z
		 M23.99,14.82h-2.96V1.13h2.96V14.82z"/>
</g>
</svg>
