<?xml version="1.0" encoding="utf-8"?>
<!-- Generator: Adobe Illustrator 25.4.1, SVG Export Plug-In . SVG Version: 6.00 Build 0)  -->
<svg version="1.1" id="Layer_1" xmlns="http://www.w3.org/2000/svg" xmlns:xlink="http://www.w3.org/1999/xlink" x="0px" y="0px"
	 viewBox="0 0 48 184" style="enable-background:new 0 0 48 184;" xml:space="preserve">
<style type="text/css">
	.st0{fill:#FFFFFF;}
</style>
<g>
	<polygon class="st0" points="7.53,176.45 7.53,133.81 41.74,133.81 41.74,176.45 47.87,176.45 47.87,183.85 0.13,183.85 
		0.13,176.45 	"/>
	<rect x="5.15" y="123.34" class="st0" width="39.66" height="8.34"/>
	<rect x="8.72" y="119.43" class="st0" width="33.02" height="5.79"/>
	<rect x="8.72" y="111.6" class="st0" width="33.02" height="4.77"/>
	<g>
		<path class="st0" d="M11.79,108.36l5.11-48.51l-7.32-9.79l1.53-1.36l-4.68-5.36V20.87c0,0-3.4-1.11-4.26-4.09h12.17
			c0,0-0.77,3.15-4.09,4.09L10.6,41.3l3.49,4.6l2.21-1.36l2.81,3.91l4.77-0.34v-2.04l3.06-0.26v2.47l5.28,0.17
			c0,0,0,9.62,1.36,11.15c0,0,1.87,0.68,3.49-2.72l6.21,4.34c0,0-5.02,9.02-8.51,11.83l2.81,35.32H11.79z"/>
		<g>
			<ellipse class="st0" cx="25.34" cy="39.72" rx="5.43" ry="6.45"/>
			<path class="st0" d="M25.36,40.45L25.36,40.45c-0.54,0-0.98-0.44-0.98-0.98V27.98c0-0.54,0.44-0.98,0.98-0.98h0
				c0.54,0,0.98,0.44,0.98,0.98v11.49C26.34,40.01,25.9,40.45,25.36,40.45z"/>
			<path class="st0" d="M25.69,40.17L25.69,40.17c-0.41,0.35-1.03,0.29-1.38-0.12l-7.39-8.8c-0.35-0.41-0.29-1.03,0.12-1.38l0,0
				c0.41-0.35,1.03-0.29,1.38,0.12l7.39,8.8C26.16,39.2,26.11,39.82,25.69,40.17z"/>
			<path class="st0" d="M25.77,39.74L25.77,39.74c-0.09,0.53-0.6,0.89-1.13,0.79l-11.31-2c-0.53-0.09-0.89-0.6-0.79-1.13l0,0
				c0.09-0.53,0.6-0.89,1.13-0.79l11.31,2C25.51,38.7,25.87,39.21,25.77,39.74z"/>
			<path class="st0" d="M25.56,39.37L25.56,39.37c0.27,0.47,0.11,1.07-0.36,1.34l-9.95,5.74c-0.47,0.27-1.07,0.11-1.34-0.36h0
				c-0.27-0.47-0.11-1.07,0.36-1.34l9.95-5.74C24.69,38.74,25.29,38.9,25.56,39.37z"/>
			<path class="st0" d="M24.53,39.74L24.53,39.74c0.27-0.47,0.87-0.63,1.34-0.36l9.95,5.74c0.47,0.27,0.63,0.87,0.36,1.34l0,0
				c-0.27,0.47-0.87,0.63-1.34,0.36l-9.95-5.74C24.42,40.81,24.26,40.2,24.53,39.74z"/>
			<path class="st0" d="M24.6,40.16L24.6,40.16c-0.09-0.53,0.26-1.04,0.79-1.13l11.31-2c0.53-0.09,1.04,0.26,1.13,0.79l0,0
				c0.09,0.53-0.26,1.04-0.79,1.13l-11.31,2C25.2,41.05,24.69,40.69,24.6,40.16z"/>
			<path class="st0" d="M24.93,40.44L24.93,40.44c-0.41-0.35-0.47-0.97-0.12-1.38l7.39-8.8c0.35-0.41,0.97-0.47,1.38-0.12l0,0
				c0.41,0.35,0.47,0.97,0.12,1.38l-7.39,8.8C25.96,40.74,25.34,40.79,24.93,40.44z"/>
		</g>
		<path class="st0" d="M13.72,15.47H1.66c0,0-0.06-1.6,1.66-2.23c0,0-1.02-5.43,1.09-3.32c0,0-0.51-3.19,1.66-3.57
			c0,0,0.26-6.06,1.91-1.6c0,0,0.57-1.63,2.23-1.64c0,0,0.96-1.04,0-2.95c0,0,6.7,3.51,2.43,10.6c0,0-0.7,0.77-0.06,1.91"/>
	</g>
</g>
</svg>
