<svg id="Layer_1" data-name="Layer 1" xmlns="http://www.w3.org/2000/svg" xmlns:xlink="http://www.w3.org/1999/xlink" viewBox="0 0 185.93 185.93"><defs><style>.cls-1,.cls-3{fill:#fff;}.cls-1{fill-rule:evenodd;}.cls-2{mask:url(#mask);}</style><mask id="mask" x="0" y="0" width="185.93" height="185.93" maskUnits="userSpaceOnUse"><g transform="translate(-157.04 -157.04)"><g id="search-b"><polygon id="search-a" class="cls-1" points="157.04 157.04 342.96 157.04 342.96 342.96 157.04 342.96 157.04 157.04"/></g></g></mask></defs><title>Search-White</title><g class="cls-2"><path class="cls-3" d="M224.82,279.26a54.45,54.45,0,1,1,54.44-54.45A54.45,54.45,0,0,1,224.82,279.26Zm54.71-9.16a6.59,6.59,0,0,0-2.84-1.68,67.79,67.79,0,1,0-8.27,8.27,6.59,6.59,0,0,0,1.68,2.84L331.58,341a6.67,6.67,0,0,0,9.43-9.43Z" transform="translate(-157.04 -157.04)"/></g></svg>