<?xml version="1.0" encoding="utf-8"?>
<!-- Generator: Adobe Illustrator 25.4.1, SVG Export Plug-In . SVG Version: 6.00 Build 0)  -->
<svg version="1.1" id="Layer_1" xmlns="http://www.w3.org/2000/svg" xmlns:xlink="http://www.w3.org/1999/xlink" x="0px" y="0px"
	 viewBox="0 0 200 200" style="enable-background:new 0 0 200 200;" xml:space="preserve">
<style type="text/css">
	.st0{fill:none;}
	.st1{fill:#388484;}
	.st2{fill:#BDEFF1;}
	.st3{font-family:'MyriadPro-Regular';}
	.st4{font-size:24px;}
</style>
<path class="st0" d="M36,101.3c0.3,17.5,7.7,33.2,19.4,44.6l44.6-44.6H36z"/>
<path class="st0" d="M100,101.3L100,101.3L54.1,55.4C42.9,66.9,36,82.7,36,100c0,0.4,0,0.9,0,1.3H100L100,101.3z"/>
<path class="st0" d="M144.6,145.9c11.7-11.4,19.1-27.1,19.4-44.6h-64L144.6,145.9z"/>
<path class="st0" d="M100,101.3V164c17.3,0,33.1-6.9,44.6-18.2L100,101.3L100,101.3z"/>
<path class="st0" d="M100,101.3l-44.6,44.6C66.9,157.1,82.7,164,100,164V101.3L100,101.3z"/>
<path class="st0" d="M100,36c-18,0-34.3,7.5-45.9,19.4l45.9,45.9V36z"/>
<polygon class="st0" points="100,101.3 100,101.3 100,101.3 "/>
<rect x="100" y="101.3" class="st0" width="0" height="0"/>
<path class="st0" d="M100,101.3l45.9-45.9C134.3,43.4,118,36,100,36V101.3L100,101.3z"/>
<polygon class="st0" points="100,101.3 100,101.3 100,101.3 "/>
<path class="st0" d="M145.9,55.4L100,101.3l0,0h64c0-0.4,0-0.9,0-1.3C164,82.7,157.1,66.9,145.9,55.4z"/>
<path class="st1" d="M55.4,145.9l-24.8,24.8C48.5,188.2,73,199,100,199v-35C82.7,164,66.9,157.1,55.4,145.9z"/>
<path class="st1" d="M100,164v35c27,0,51.5-10.8,69.4-28.4l-24.8-24.8C133.1,157.1,117.3,164,100,164z"/>
<path class="st1" d="M199,101.3h-35c-0.3,17.5-7.7,33.2-19.4,44.6l24.8,24.8C187.4,153,198.7,128.5,199,101.3z"/>
<path class="st1" d="M164,100c0,0.4,0,0.9,0,1.3h35c0-0.4,0-0.9,0-1.3c0-27-10.8-51.5-28.4-69.4l-24.8,24.8
	C157.1,66.9,164,82.7,164,100z"/>
<path class="st1" d="M145.9,55.4l24.8-24.8C152.7,12.3,127.7,1,100,1v35C118,36,134.3,43.4,145.9,55.4z"/>
<path class="st2" d="M100,36V1C72.3,1,47.3,12.3,29.3,30.6l24.8,24.8C65.7,43.4,82,36,100,36z"/>
<path class="st2" d="M36,100c0-17.3,6.9-33.1,18.2-44.6L29.3,30.6C11.8,48.5,1,73,1,100c0,0.4,0,0.9,0,1.3h35
	C36,100.9,36,100.4,36,100z"/>
<path class="st2" d="M36,101.3H1c0.3,27.2,11.6,51.7,29.6,69.4l24.8-24.8C43.7,134.5,36.3,118.8,36,101.3z"/>
<text transform="matrix(1 0 0 1 78.1844 107.044)" class="st2 st3 st4">70%</text>
</svg>
