<?xml version="1.0" encoding="utf-8"?>
<!-- Generator: Adobe Illustrator 25.4.1, SVG Export Plug-In . SVG Version: 6.00 Build 0)  -->
<svg version="1.1" id="Layer_1" xmlns="http://www.w3.org/2000/svg" xmlns:xlink="http://www.w3.org/1999/xlink" x="0px" y="0px"
	 viewBox="0 0 519.6 519.6" style="enable-background:new 0 0 519.6 519.6;" xml:space="preserve">
<style type="text/css">
	.st0{fill:#E6E6E6;}
	.st1{fill:#F7931E;}
	.st2{fill:#1B1464;}
	.st3{fill:#525568;}
	.st4{fill:#FFFFFF;}
	.st5{fill:#556D84;}
	.st6{fill:#F7C399;}
	.st7{fill:#EA9775;}
	.st8{fill:#F2F2F2;stroke:#000000;stroke-miterlimit:10;}
	.st9{fill:#000102;stroke:#000000;stroke-miterlimit:10;}
	.st10{fill:#EF707A;}
	.st11{fill:#A62A35;}
	.st12{fill:#FF7BAC;}
	.st13{fill:#F2F2F2;}
	.st14{fill:#FCEE21;}
	.st15{fill:#181D23;}
	.st16{fill:#999999;}
	.st17{fill:#CCCCCC;}
	.st18{fill:#B3B3B3;}
</style>
<g>
	<path class="st0" d="M484.8,259.8c0,80.6-42.4,151.4-106.2,191.1v0c-34.5,21.5-75.2,33.9-118.8,33.9c-5.2,0-10.4-0.2-15.6-0.5
		c-6.3-0.4-12.6-1.1-18.7-2.1c-7.4-1.1-14.7-2.6-21.8-4.5c-1.9-0.5-3.8-1-5.6-1.5c-8.2-2.3-16.2-5.1-23.9-8.3
		c-2.3-0.9-4.5-1.9-6.7-2.9c-0.3-0.1-0.7-0.3-1-0.4c-7.9-3.6-15.5-7.6-22.8-12.1c-9.3-5.6-18.1-11.8-26.4-18.7
		c-50.3-41.3-82.4-103.9-82.4-174c0-124.3,100.7-225,225-225S484.8,135.5,484.8,259.8z"/>
</g>
<path class="st1" d="M255.1,447c0,13.7-4,26.5-10.8,37.3c-6.3-0.4-12.6-1.1-18.7-2.1c-7.4-1.1-14.7-2.6-21.8-4.5
	c-1.9-0.5-3.8-1-5.6-1.5c-8.2-2.3-16.2-5.1-23.9-8.3c-2.3-0.9-4.5-1.9-6.7-2.9c-0.3-0.1-0.7-0.3-1-0.4c-7.9-3.6-15.5-7.6-22.8-12.1
	c-9.3-5.6-18.1-11.8-26.4-18.7c6.1-32.1,34.4-56.4,68.3-56.4C223.9,377.5,255.1,408.6,255.1,447z"/>
<path d="M376.8,367.9H143.2l-0.4-34v-125c0-2,0.2-3.9,0.4-5.8c-0.3-2.8-0.4-5.7-0.4-8.6c0-3.6,0.2-7.2,0.6-10.8
	c0.5-4,1.2-7.8,2.1-11.6c0-0.2,0.1-0.4,0.1-0.6c2-7.9,5.1-15.4,9.1-22.5c1.7-3.1,3.6-6.1,5.7-9c0.1-0.1,0.2-0.2,0.3-0.4
	c0.6-0.9,1.2-1.7,1.9-2.5c0.1-0.2,0.3-0.4,0.4-0.5c2.9-3.8,6.1-7.3,9.5-10.7c12.6-12.4,28.5-22,46.6-27.9c3.2-1,6.5-2,9.8-2.8
	c0.2,0,0.3-0.1,0.4-0.1c9.6-2.3,19.7-3.5,30.2-3.5c37.5,0,70.9,15.6,92.3,39.8c1.1,1.2,2.1,2.4,3.1,3.7
	c13.5,16.8,21.4,37.3,21.4,59.4c0,1.3,0,2.5-0.1,3.8c-0.1,1.6-0.2,3.2-0.3,4.8c0.3,1.9,0.4,3.8,0.4,5.8v125L376.8,367.9z"/>
<path class="st2" d="M379.6,450.9L379.6,450.9c-34.5,21.5-75.2,33.9-118.8,33.9c-42.5,0-82.3-11.8-116.2-32.3
	c27.1-96.3,115.2-92.7,115.2-92.7C375.9,366.5,379.6,450.9,379.6,450.9z"/>
<g>
	<g>
		<path class="st3" d="M244.3,349.8l-0.2,4.7c-8.2,2.9-15.4,8.5-17.9,19.2L226,375c0,0,4.6-1.9,7.3-0.6l0.9,30c0,0-20.7,3-14.7-29.4
			C219.6,375.1,219.9,356.1,244.3,349.8z"/>
		<path class="st3" d="M303,389.5c0,0,0.6,13.9-14.4,15.6c-0.2,0-0.4,0.1-0.5,0.1l-0.7-27.8l0-1.9c0,0,0.1-0.1,0.4-0.2
			c0.9-0.5,3.2-1.4,6.3-0.2c0,0-0.3-3.7-2.8-8.3c-2.5-4.6-7.1-10.1-15.7-13.5l-0.1-3.5c3.8,0.9,7.3,2.3,9.8,4.5c0,0,8.2,4.4,13,17.3
			c0.2,0.7,0.5,1.4,0.7,2.1c0.4,1.1,0.7,2.3,1,3.6C299.9,377.1,303,380.9,303,389.5z"/>
		
			<ellipse transform="matrix(0.9996 -2.982816e-02 2.982816e-02 0.9996 -11.5123 8.7383)" class="st4" cx="287.1" cy="390.2" rx="5" ry="15.3"/>
		
			<ellipse transform="matrix(0.9996 -2.982816e-02 2.982816e-02 0.9996 -11.5153 7.1473)" class="st4" cx="233.8" cy="389.5" rx="5" ry="15"/>
	</g>
	<path class="st5" d="M224.2,397c0,0-4.4-6.6-1.5-14.2C222.6,382.8,215.7,389,224.2,397z"/>
	<path class="st5" d="M296,400.4c0,0,6.3-10,1.2-20.9C297.1,379.5,308.6,388,296,400.4z"/>
</g>
<g>
	<g>
		<rect x="245.3" y="322.6" class="st6" width="31" height="43.9"/>
		<path class="st7" d="M276.3,322.6v25.1c-4.5,2.9-9.8,4.6-15.5,4.6c-5.7,0-11-1.7-15.5-4.6v-25.1H276.3z"/>
	</g>
	<circle class="st6" cx="260.8" cy="367.9" r="15.5"/>
</g>
<path class="st6" d="M343.9,271H173.8c-10,0-18.2-8.2-18.2-18.2v0c0-10,8.2-18.2,18.2-18.2h170.2c10,0,18.2,8.2,18.2,18.2v0
	C362.1,262.9,353.9,271,343.9,271z"/>
<path class="st7" d="M171.2,243.2h175.3c5.3,0,9.6,4.3,9.6,9.6v0c0,5.3-4.3,9.6-9.6,9.6H171.2c-5.3,0-9.6-4.3-9.6-9.6v0
	C161.6,247.6,165.9,243.2,171.2,243.2z"/>
<path class="st6" d="M346.6,179v81.2c0,0.9,0,1.9-0.1,2.8c-0.3,6.3-1.2,12.5-2.8,18.3c-5.8,22.1-20.1,40.7-39.1,52.2
	c-13.1,7.9-28.5,12.5-45,12.5c-16.2,0-31.4-4.4-44.5-12.2c-19.2-11.4-33.7-30.1-39.6-52.2c-1.6-6-2.6-12.2-2.9-18.6
	c-0.1-0.9-0.1-1.9-0.1-2.8V179c0-25.5,20.9-46.4,46.4-46.4h81.2C325.8,132.6,346.6,153.5,346.6,179z"/>
<g>
	<g>
		<path d="M251,237c-0.1-0.8-0.2-1.6-0.3-2.3c-2.6-15.4-15.9-27.1-32-27.1c-3.3,0-6.5,0.5-9.5,1.4c-7.5,2.3-13.9,7.2-18,13.8
			c0,0,0,0,0,0c-2.2,3.6-3.8,7.6-4.5,11.9c-0.3,1.8-0.4,3.6-0.4,5.4c0,1.1,0,2.1,0.2,3.1c0.7,7.5,3.9,14.2,8.8,19.3
			c3.7,3.9,8.4,6.9,13.6,8.5c3.1,1,6.5,1.5,9.9,1.5c3.5,0,6.8-0.5,9.9-1.5c5.2-1.7,9.9-4.6,13.6-8.5c4.9-5.1,8.1-11.8,8.8-19.3
			c0,0,0,0,0,0c0.1-1,0.1-2,0.1-3.1C251.1,239.1,251.1,238,251,237z M225.6,262.5c-2.2,0.7-4.6,1.1-7,1.1c-2.4,0-4.8-0.4-7-1.1
			c-8.6-2.7-15.1-10.2-16.3-19.3c-0.1-1-0.2-2.1-0.2-3.1c0-1.9,0.2-3.7,0.6-5.4c2.4-10.4,11.7-18.1,22.8-18.1
			c11.1,0,20.4,7.7,22.8,18.1c0.4,1.7,0.6,3.6,0.6,5.4c0,1.1-0.1,2.1-0.2,3.1C240.7,252.4,234.2,259.8,225.6,262.5z"/>
		<path d="M332.7,234.7c-0.7-4.3-2.3-8.4-4.6-11.9c-4.1-6.5-10.5-11.5-18-13.7c-3-0.9-6.2-1.4-9.5-1.4c-16.1,0-29.5,11.7-32,27.1
			c-0.1,0.8-0.2,1.5-0.3,2.3c-0.1,1-0.1,2-0.1,3.1c0,1,0,2.1,0.1,3.1c0,0,0,0,0,0c0.7,7.5,3.9,14.2,8.8,19.3
			c3.7,3.9,8.4,6.9,13.6,8.5c3.1,1,6.5,1.5,9.9,1.5c3.5,0,6.8-0.5,9.9-1.5c5.2-1.7,9.9-4.6,13.6-8.5c4.9-5.1,8.1-11.8,8.8-19.3
			c0.1-1,0.2-2.1,0.2-3.1C333.1,238.3,333,236.5,332.7,234.7z M307.6,262.5c-2.2,0.7-4.6,1.1-7,1.1c-2.4,0-4.8-0.4-7-1.1
			c-8.6-2.7-15.1-10.2-16.3-19.3c-0.1-1-0.2-2.1-0.2-3.1c0-1.9,0.2-3.7,0.6-5.4c2.4-10.4,11.7-18.1,22.8-18.1
			c11.1,0,20.4,7.7,22.8,18.1c0.4,1.7,0.6,3.6,0.6,5.4c0,1.1-0.1,2.1-0.2,3.1C322.7,252.4,316.2,259.8,307.6,262.5z"/>
	</g>
	<rect x="246.2" y="237" width="29.9" height="6.2"/>
</g>
<path class="st7" d="M246.7,276.2c-3.1-5.6,6.8-21.4,13.2-22.1c6.4-0.7,15.8,16.9,12.5,22.4S249.8,281.8,246.7,276.2z"/>
<g>
	<path class="st8" d="M222.2,244h-6.9c-2.3,0-4.2-1.9-4.2-4.2v0c0-2.3,1.9-4.2,4.2-4.2h6.9c2.3,0,4.2,1.9,4.2,4.2v0
		C226.4,242.1,224.5,244,222.2,244z"/>
	<circle class="st9" cx="222.2" cy="239.8" r="4.2"/>
</g>
<g>
	<path class="st8" d="M304.1,244h-7c-2.3,0-4.3-1.9-4.3-4.3v0c0-2.3,1.9-4.3,4.3-4.3h7c2.3,0,4.3,1.9,4.3,4.3v0
		C308.4,242.1,306.4,244,304.1,244z"/>
	<circle class="st9" cx="304.1" cy="239.7" r="4.3"/>
</g>
<g>
	<path d="M340.2,152.1c-16.3-17.8-34-30.8-48.7-37.1v-1h-2.4c-10.7-4.1-19.6-4.4-24.9,0H255c-5.4-4.4-14.3-4.1-24.9,0h-0.4v0.2
		c-15.1,5.9-33.6,19.4-50.7,37.9c-29.7,32.4-43.6,67.9-31,79.5c12.6,11.5,46.8-5.3,76.5-37.7c10.6-11.6,19.2-23.5,25.3-34.7
		c-3.8-2.7-8.4-4.3-13.4-4.3h46.4c-5,0-9.6,1.6-13.4,4.3c6.1,11.1,14.7,23.1,25.3,34.6c29.7,32.4,64,49.2,76.5,37.7
		C383.8,220.1,369.9,184.5,340.2,152.1z"/>
	<path d="M250.5,158.1c-0.2,0.4-0.4,0.8-0.6,1.2c5.9,4.2,9.8,11.1,9.8,18.9c0-7.8,3.9-14.7,9.8-18.9c-0.2-0.4-0.4-0.8-0.6-1.2H250.5
		z"/>
	<path d="M236.4,155c5,0,9.6,1.6,13.4,4.3c0.2-0.4,0.4-0.8,0.6-1.2h18.3c0.2,0.4,0.4,0.8,0.6,1.2c3.8-2.7,8.4-4.3,13.4-4.3H236.4z"
		/>
</g>
<path class="st10" d="M222.9,312.4c0,8.1-2.9,15.6-7.7,21.4c-19.2-11.4-33.7-30.1-39.6-52.2c4.2-1.9,8.8-2.9,13.7-2.9
	C207.8,278.8,222.9,293.9,222.9,312.4z"/>
<path class="st10" d="M343.8,281.4c-5.8,22.1-20.1,40.7-39.1,52.2c-4.7-5.8-7.5-13.1-7.5-21.1c0-18.6,15.1-33.6,33.6-33.6
	C335.4,278.8,339.8,279.7,343.8,281.4z"/>
<path class="st7" d="M218.5,273c-17.1,0-31.2-13.1-32.7-29.8c-0.1,1-0.1,2.1-0.1,3.1c0,18.2,14.7,32.9,32.9,32.9
	s32.9-14.7,32.9-32.9c0-1-0.1-2.1-0.1-3.1C249.6,259.9,235.6,273,218.5,273z"/>
<path class="st7" d="M300.5,273c-17.1,0-31.2-13.1-32.7-29.8c-0.1,1-0.1,2.1-0.1,3.1c0,18.2,14.7,32.9,32.9,32.9
	s32.9-14.7,32.9-32.9c0-1-0.1-2.1-0.1-3.1C331.6,259.9,317.6,273,300.5,273z"/>
<g>
	<g>
		<path class="st11" d="M283.7,315.3c-0.8-2.7-3.6-4.3-6.4-3.7l-13.4,3l-8.1,1.8c-2.8,0.6-4.6,3.4-4.2,6.2c-1.5-0.1-3-0.7-4.1-1.7
			c-1.1-1-2-2.3-2.3-3.8c-0.7-3.1,0.8-6.2,3.5-7.7c0,0,0,0,0,0.1c0.7,2.9,3.6,4.8,6.5,4.1l8.7-1.9l12.9-2.9c2.9-0.7,4.7-3.6,4.1-6.5
			c1.4,0.2,2.8,0.8,3.9,1.7c1.1,0.9,1.9,2.2,2.2,3.7C287.5,310.7,286.1,313.7,283.7,315.3z"/>
		<path class="st12" d="M283.7,315.3c-0.7,0.4-1.4,0.7-2.2,0.9l-16,3.6c-0.8-1.6-1.4-3.4-1.6-5.2c-0.1-0.7-0.1-1.4-0.1-2.1
			c0-0.3,0-0.5,0-0.8c0.1-2.3,0.7-4.4,1.6-6.3l13-2.9c0.8-0.2,1.6-0.2,2.4-0.1c1.4,0.2,2.8,0.8,3.9,1.7c1.1,0.9,1.9,2.2,2.2,3.7
			C287.5,310.7,286.1,313.7,283.7,315.3z"/>
		<path class="st13" d="M276.6,308.7l-12.9,2.9l-8.7,1.9c-2.9,0.7-5.8-1.2-6.5-4.1c0,0,0,0,0-0.1c0.6-0.3,1.2-0.6,1.9-0.7l14.9-3.4
			l13-2.9c0.8-0.2,1.6-0.2,2.4-0.1C281.4,305.2,279.5,308.1,276.6,308.7z"/>
	</g>
	<path class="st13" d="M283.7,315.3c-0.7,0.4-1.4,0.7-2.2,0.9l-16,3.6l-11.9,2.7c-0.7,0.1-1.3,0.2-2,0.2c-0.5-2.8,1.3-5.6,4.2-6.2
		l8.1-1.8l13.4-3C280.1,310.9,282.8,312.6,283.7,315.3z"/>
</g>
<path class="st7" d="M273.1,326.3l-7.6,1.5c-1.5,0.3-2.9-0.7-3.2-2.1l0,0c-0.3-1.5,0.7-2.9,2.1-3.2l7.6-1.5c1.5-0.3,2.9,0.7,3.2,2.1
	v0C275.5,324.6,274.5,326,273.1,326.3z"/>
<rect x="251.3" y="243.6" class="st7" width="16.2" height="2.3"/>
<path class="st1" d="M226.5,482.2c-7.4-1.1-14.7-2.6-21.8-4.5c0-2.1-0.1-4.1-0.1-6.1c-0.4-12.1-1.8-23.4-3.6-33.7
	c-6.4-36.3-18.8-59.7-18.8-59.7l18.5-10.9c10.6,20.9,17.3,41.8,21.2,61.7c2.5,12.8,3.9,25.1,4.4,36.7
	C226.5,471.4,226.6,476.9,226.5,482.2z"/>
<g>
	<g>
		<path class="st14" d="M237.2,436.6c0,0-0.1,0.1-0.1,0.2c-0.1,0-0.2,0-0.3,0c-0.2-0.1-0.3-0.1-0.5-0.2c-0.1-0.1-0.1-0.1-0.2-0.2
			c-0.1-0.1-0.2-0.2-0.3-0.3c-0.1,0-0.3-0.2-0.4-0.5c0,0,0-0.1,0-0.1c0,0,0-0.2-0.1-0.4c-0.1-0.1-0.1-0.1-0.2-0.2c0-0.1,0-0.1,0-0.1
			c-0.1-0.1-0.1-0.1-0.1-0.2c0-0.1-0.1-0.1-0.1-0.2c-0.1,0-0.1,0-0.1,0c0-0.1,0-0.1,0-0.2c0,0-0.1,0-0.1-0.1c0-0.1,0-0.1,0-0.1
			c-0.1-0.1-0.1-0.1-0.2-0.2c-0.1-0.1-0.1-0.2-0.2-0.3c-0.1-0.1-0.1-0.1-0.2-0.1c-0.1-0.1-0.1-0.2-0.1-0.2c0-0.1-0.2-0.1-0.4-0.1
			c0,0.1,0,0.2-0.1,0.3c0,0.1-0.1,0.1-0.1,0.1c-0.1,0.3-0.1,0.4-0.2,0.7c-0.1,0.2-0.1,0.3-0.2,0.6c0,0.1,0,0.2,0,0.3
			c-0.1,0.2-0.1,0.3-0.2,0.5c-0.1,0.2-0.2,0.3-0.3,0.6c0,0.1,0,0.1,0.1,0.2c-0.1,0.1-0.1,0.1-0.2,0.2c0,0.1,0,0.1,0,0.2
			c-0.1,0.1-0.1,0.2-0.2,0.3c0,0.1,0,0.2,0,0.3c-0.1,0.1-0.1,0.1-0.2,0.2c0,0.2,0,0.4,0,0.6c-0.1,0.1-0.1,0.2,0,0.4
			c0,0-0.1,0-0.1,0.1c-0.1,0-0.2-0.1-0.4-0.1c0-0.1,0-0.1-0.1-0.1c-0.1,0-0.1,0-0.1,0c0-0.1,0-0.1,0-0.1c0,0-0.1,0-0.1,0
			c0,0-0.1-0.1-0.2-0.2c-0.1,0-0.1,0-0.2,0c0,0-0.1,0-0.2,0c-0.1,0-0.2-0.1-0.2-0.1c0,0-0.1-0.1-0.3-0.2c-0.1,0-0.1,0-0.2,0
			c-0.2-0.1-0.3-0.1-0.5-0.2c-0.2,0-0.2,0-0.4-0.1c-0.1,0-0.1-0.1-0.2-0.1c-0.1,0-0.2,0-0.4-0.1c-0.2-0.1-0.3-0.1-0.5-0.2
			c-0.3-0.1-0.4-0.1-0.5,0c-0.1,0-0.1,0.1-0.1,0.1c0,0.1-0.1,0.1-0.1,0.1c0,0,0,0,0,0c0,0,0,0.1,0.1,0.1c0.1,0.2,0.2,0.4,0.2,0.6
			c0,0.2,0,0.3,0,0.6c0.1,0.1,0.1,0.1,0.2,0.2c0,0.1,0,0.1,0,0.2c0.1,0.3,0.1,0.5,0.2,0.8c0,0.1,0,0.2,0.1,0.3c0,0.1,0,0.1,0.1,0.2
			c0,0.2,0,0.3,0.1,0.4c0,0.2,0,0.2,0,0.4c0.1,0.1,0.1,0.1,0.2,0.2c0,0.2,0,0.3,0.1,0.5c0,0.1,0.1,0.1,0.2,0.1
			c0,0.3-0.1,0.4-0.1,0.4c0,0-0.1,0-0.1,0c-0.1,0-0.1-0.1-0.2-0.1c0,0,0-0.1,0-0.2c0-0.1,0-0.2-0.1-0.3c0-0.1-0.1-0.2,0-0.3
			c0-0.1,0-0.1,0-0.1c-0.1-0.1-0.1-0.1-0.2-0.2c-0.1-0.1-0.1-0.3,0-0.5c0-0.1-0.1-0.1-0.1-0.2c0-0.1-0.1-0.2-0.1-0.3c0,0,0,0-0.1,0
			c0,0-0.1-0.1-0.1-0.2c0-0.1,0-0.2,0-0.2c-0.1-0.1-0.1-0.1-0.1-0.2c0-0.1,0-0.1,0-0.2c-0.1-0.3-0.1-0.4-0.2-0.7
			c-0.1-0.1-0.1-0.1-0.2-0.2c0-0.1,0-0.1,0.1-0.1c0-0.1,0-0.1,0-0.1c-0.1-0.2-0.2-0.3-0.3-0.4c-0.1-0.2-0.1-0.3-0.2-0.4
			c0-0.1-0.2-0.2-0.4-0.3c0-0.1,0-0.1,0-0.2c0,0-0.1,0-0.1,0c0,0,0-0.1,0-0.1c0.1-0.1,0.2-0.2,0.2-0.2c0,0,0.1,0,0.1-0.1
			c0.1,0,0.1,0,0.2,0c0,0,0,0.1,0.1,0.1c0.1,0,0.1,0,0.2,0c0.1,0.1,0.1,0.1,0.2,0.2c0.1,0,0.1,0,0.2,0c0.1,0,0.1,0.1,0.1,0.1
			c0,0,0,0,0.1,0c0,0,0,0.1,0,0.1c0,0.1,0.1,0,0.3,0c0.1,0,0.1,0,0.2,0c0,0,0.1,0.1,0.1,0.1c0.1,0,0.1,0,0.2,0
			c0.1,0.1,0.1,0.1,0.2,0.2c0.3,0,0.5,0.1,0.9,0.1c0.1,0.1,0.2,0.1,0.3,0.2c0.1,0,0.2,0,0.3,0c0.2,0.1,0.3,0.2,0.4,0.3
			c0.3,0.1,0.5,0.2,0.8,0.4c0.2,0.1,0.3,0.1,0.5,0.1c0-0.1,0-0.1-0.1-0.1c0.1-0.1,0.1-0.1,0.2-0.1c0-0.1,0-0.2,0-0.3
			c0.1-0.1,0.1-0.2,0.2-0.3c0-0.1,0-0.2,0.1-0.3c0,0,0-0.1-0.1-0.1c0.1-0.1,0.1-0.2,0.2-0.3c0.1-0.1,0.1-0.2,0.1-0.2c0,0,0,0,0,0
			c0,0,0-0.1,0-0.2c0.1,0,0.1,0,0.1-0.1c0-0.1,0-0.1,0-0.2c0,0,0.1,0,0.1,0c0,0,0,0,0,0c0,0,0-0.1-0.1-0.2c0.1-0.3,0.2-0.5,0.3-0.6
			c0-0.1,0-0.1-0.1-0.1c0-0.1,0-0.2,0.1-0.3c0,0,0.1,0,0.1,0c0,0,0,0,0-0.1c0-0.2,0-0.3,0.1-0.5c0,0,0-0.1,0-0.1c0,0,0.1,0,0.1,0
			c0.1-0.2,0.1-0.4,0.1-0.5c0-0.1,0.1-0.1,0.2-0.2c0,0,0.1,0,0.1,0c0-0.1,0-0.1,0-0.2c-0.1-0.1-0.1-0.2-0.2-0.3
			c-0.1,0-0.1-0.1-0.2-0.1c0-0.2,0-0.3,0-0.4c0.1,0,0.2-0.1,0.2-0.1c0,0,0.1,0,0.2,0c0,0.1,0.1,0.1,0.1,0.2c0.2,0,0.3,0,0.3,0
			s0,0,0,0.1c0,0,0,0.1,0,0.1c0.1,0.1,0.1,0.2,0.1,0.3c0.1,0,0.1,0,0.1,0.1c0,0,0,0.1,0,0.1c0,0,0.1,0,0.1,0c0,0.1,0,0.1,0,0.1
			c0,0,0,0,0.1,0c0.1,0.1,0.1,0.1,0.2,0.2c0,0,0.1,0,0.1,0c0,0.1,0,0.1-0.1,0.2c0,0,0,0,0.1,0c0,0.1,0,0.1,0.1,0.2
			c0.1,0.1,0.1,0.1,0.2,0.1c0,0.1,0.1,0.2,0.1,0.3c0.1,0.1,0.2,0.2,0.3,0.3c0.1,0.1,0.1,0.2,0.2,0.3c0,0.1,0,0.2-0.1,0.3
			c0.1,0,0.1,0.1,0.1,0.1c0,0,0.1,0,0.1,0c0,0,0,0.1,0,0.1c0,0.1,0,0.1,0,0.2c0.1,0,0.1,0,0.1,0c0.1,0.2,0.2,0.4,0.3,0.6
			c0.1,0.1,0.2,0.2,0.3,0.3c0.1,0.2,0.1,0.3,0.2,0.4c0.1,0,0.1,0,0.1,0c0.1,0.1,0.2,0.1,0.2,0.2c0.1,0,0.1,0.1,0.3,0.1
			C237.1,436.5,237.2,436.6,237.2,436.6z"/>
		<path class="st14" d="M242.9,433.8c-0.1,0.1-0.1,0.1-0.2,0.1c0,0,0,0.1,0,0.1c-0.1,0-0.1,0.1-0.2,0.1c0,0,0,0-0.1,0
			c0,0,0,0-0.1,0.1c-0.1-0.1-0.2-0.1-0.3-0.1c0-0.1-0.1-0.1-0.1-0.2c0,0-0.1,0-0.1,0c0-0.1-0.1-0.2-0.1-0.4
			c-0.1-0.3-0.2-0.4-0.4-0.7c0-0.1,0-0.2,0-0.3c-0.1,0-0.1-0.1-0.1-0.1c0,0,0.1-0.1,0.1-0.1c0,0-0.1,0-0.1-0.1c0,0,0-0.1,0-0.1
			c0,0,0,0,0-0.1c0-0.1,0-0.1-0.1-0.1c0,0,0,0,0.1,0c0-0.1-0.1-0.1-0.1-0.2c0,0,0-0.1,0-0.1c0,0-0.1,0-0.2-0.1
			c-0.1,0.1-0.1,0.1-0.2,0.2c0,0.1-0.1,0.2-0.1,0.3c0,0,0,0.1,0,0.1c0,0-0.1,0.1-0.1,0.1c0,0.1,0,0.1,0,0.2c0,0,0,0.1-0.1,0.1
			c0,0,0,0,0,0.1c-0.1,0.1-0.1,0.2-0.1,0.3c0,0,0,0.1-0.1,0.1c0,0.2,0,0.2-0.1,0.4c-0.1,0.2-0.1,0.2-0.2,0.4c0,0.1,0,0.1,0,0.2
			c-0.1,0.1-0.1,0.2-0.2,0.4c0,0.1,0,0.1,0,0.2c-0.1,0.2-0.2,0.2-0.3,0.4c-0.1,0.2-0.1,0.4-0.2,0.6c0,0-0.1,0.1-0.1,0.1
			c0,0-0.1,0.1-0.1,0.2c0,0,0,0,0,0c-0.1,0-0.2,0-0.2-0.1c-0.4,0-0.6,0-0.7-0.2c0,0,0-0.1,0.1-0.1c-0.1-0.1-0.2-0.2-0.3-0.4
			c0,0-0.1,0-0.1,0c0,0,0,0,0-0.1c0,0,0-0.1,0-0.1c0-0.1,0-0.1-0.1-0.2c0-0.2-0.1-0.3-0.1-0.4c0,0,0,0,0-0.1c0,0,0-0.1,0-0.1
			c0,0-0.1-0.1-0.1-0.1c0,0,0-0.1,0-0.1c0,0,0,0,0,0c0-0.1,0-0.2,0-0.3c0,0,0-0.1-0.1-0.1c0,0-0.1,0-0.1,0c0,0,0-0.1,0-0.1
			c-0.1,0-0.1,0-0.1,0c0,0,0-0.1,0.1-0.1c0,0,0,0,0,0c0-0.1,0-0.2,0-0.3c0-0.1,0-0.1,0-0.2c0,0-0.1,0-0.1,0c0-0.1,0-0.2,0.1-0.3
			c0,0,0,0,0-0.1c-0.1-0.2-0.1-0.3,0-0.5c0-0.1-0.1-0.1-0.1-0.2c0,0,0,0,0-0.1c0,0-0.1,0-0.1-0.1c0,0,0,0,0.1-0.1
			c0-0.1,0-0.1-0.1-0.2c0,0,0.1-0.1,0-0.1c0,0,0,0,0-0.1c0,0,0-0.1,0.1-0.3c0.1-0.1,0.1-0.2,0.1-0.3c0,0,0,0,0,0
			c0.1,0,0.1-0.1,0.1-0.1c0,0,0,0-0.1,0c0.2-0.1,0.3-0.2,0.2-0.2c0.1-0.1,0.1-0.1,0.2-0.2c0.3-0.1,0.4-0.2,0.7-0.3c0,0,0,0,0,0
			c0.2-0.1,0.4-0.1,0.6-0.1c0,0,0,0,0.1,0c0.1,0,0.1,0,0.2,0c0,0,0,0,0.1,0c0,0.1,0.1,0.1,0.2,0c0,0,0,0,0.1,0c0.1,0,0.1,0,0.2,0
			c0.1,0,0.2,0,0.3-0.1c0,0,0,0.1,0,0.1c0.1-0.1,0.2-0.2,0.4-0.4c0,0.1,0,0.1,0.1,0.2c0,0,0,0-0.1,0c0.1,0,0.1,0,0.2,0c0,0,0,0,0,0
			c0.1,0.1,0.1,0.1,0.2,0.2c0,0.1,0,0.1-0.1,0.2c0,0.1,0,0.1,0,0.2c0,0.1,0,0.2,0,0.3c0.1,0,0.1,0.1,0.1,0.1c0,0,0,0.1,0,0.1
			c0,0.1,0,0.2,0,0.3c0,0,0.1,0,0.1,0c0,0,0,0.1,0,0.1c0,0,0,0,0,0.1c0,0.1,0,0.1,0,0.1c0,0,0,0.1,0.1,0.1c0,0,0,0.1,0,0.1
			c0,0.1,0.1,0.1,0.1,0.2c0,0,0,0,0,0c0,0,0,0,0.1,0c0,0,0,0,0,0c0,0,0,0,0,0c0,0,0,0.1,0,0.1c0,0,0,0,0.1,0.1c0,0,0,0.1,0,0.1
			c0,0,0,0.1,0,0.2c0,0,0.1,0.1,0.1,0.1c0,0.1,0,0.1-0.1,0.2c0.1,0.1,0.1,0.1,0.2,0.1c0,0.1,0,0.3,0,0.5c0,0,0.1,0,0.1,0
			c0,0,0,0,0,0.1c0,0,0,0,0,0.1c0,0.1,0,0.1,0,0.3c0,0,0,0,0.1,0c0,0.1,0.1,0.1,0.1,0.2c0.1,0,0.2,0,0.3-0.1c0.1,0,0.1,0.1,0.1,0.1
			c0,0,0,0,0,0.1c0,0,0.1,0,0.2,0.1c0,0,0,0,0,0c0,0,0,0,0,0C242.7,433.7,242.8,433.8,242.9,433.8z M240.6,430
			c-0.1-0.1-0.1-0.1-0.2-0.2c-0.1,0-0.1,0-0.2,0c-0.2,0-0.3-0.1-0.5-0.1c-0.1,0-0.1,0-0.2,0c0,0-0.1,0-0.1,0.1c0,0-0.1,0-0.1,0
			c-0.1,0-0.1,0.1-0.2,0.1c0,0-0.1,0-0.1,0c-0.1,0-0.1,0.1-0.1,0.1c0,0-0.1,0-0.1,0c0,0-0.1,0-0.1,0.1c-0.1,0-0.1,0-0.2,0.1
			c-0.1,0-0.2,0.2-0.4,0.3c0,0,0,0,0,0c0,0-0.1,0.1-0.1,0.1c0,0,0,0,0,0.1c-0.1,0-0.1,0.1-0.1,0.1c0,0,0,0,0,0.1
			c-0.1,0.1-0.1,0.3-0.1,0.5c0,0.2,0,0.5,0,0.7c0,0,0.1,0,0.1,0c0,0.1-0.1,0.1-0.1,0.2c0,0,0.1,0,0.1,0.1c0,0.1,0,0.3,0,0.4
			c0,0,0,0,0,0.1c0,0.1,0,0.1,0,0.2c0,0.1,0.1,0.1,0.1,0.2c0,0.1,0,0.2,0,0.2c0,0,0,0,0,0.1c0,0.1,0.1,0.1,0.1,0.2c0,0,0,0,0,0.1
			c0,0.1,0.1,0.2,0.1,0.3c0.1,0,0.1,0.1,0.1,0.1c0,0-0.1,0.1-0.1,0.2c0,0,0.1,0,0.1,0.1c0,0,0,0.1,0,0.1c0.1,0.1,0.1,0.1,0.2,0.2
			c0,0.1,0,0.1,0,0.2c0.1,0.1,0.1,0.2,0.1,0.3c0,0.1,0,0.1,0,0.1c0,0,0,0,0.1,0c0,0,0,0,0.1,0.1c0.1,0,0.2,0,0.2,0
			c0.1-0.1,0.2-0.1,0.3-0.2c0-0.1,0.1-0.2,0.2-0.3c0,0,0,0-0.1-0.1c0.1-0.1,0.2-0.1,0.2-0.1c0,0,0,0,0-0.1c0,0,0-0.1,0.1-0.2
			c0,0,0,0,0,0c0,0,0,0,0-0.1c0.1-0.1,0.1-0.2,0.1-0.3c0,0,0,0,0,0c0-0.1,0.1-0.1,0.1-0.2c0-0.1,0.1-0.1,0.2-0.2c0-0.1,0-0.2,0-0.3
			c0.1-0.1,0.2-0.2,0.2-0.3c0,0,0,0,0.1,0c0-0.1,0-0.1,0.1-0.2c0,0,0,0-0.1-0.1c0,0,0.1,0,0.1-0.1c0,0,0,0,0,0s0-0.1,0-0.2
			c0-0.1,0.1-0.2,0.1-0.2c0,0,0,0,0.1,0c0-0.1,0-0.2,0.1-0.3c0-0.1,0-0.1,0-0.2c0-0.1,0.1-0.1,0.1-0.1c0,0,0.1,0,0.1,0
			c0-0.1,0-0.1,0-0.1c0,0,0,0,0-0.1c0,0,0,0-0.1,0c0-0.1,0.1-0.2,0.1-0.3c0-0.1,0-0.1,0-0.1c0,0,0-0.1,0.1-0.1c0,0,0-0.1-0.1-0.1
			c0-0.1,0-0.2,0-0.2c0-0.1,0-0.1,0.1-0.1C240.7,430.2,240.6,430.2,240.6,430z"/>
		<path class="st14" d="M251.6,430.2c0,0.1,0,0.1,0,0.1c0,0.2,0,0.3,0,0.4c-0.1,0.1-0.1,0.2-0.1,0.2c0,0.1,0,0.1-0.1,0.2
			c0,0-0.1,0.1-0.1,0.1c0,0-0.1,0.1-0.1,0.2c-0.1,0.1-0.2,0.2-0.4,0.3c-0.1,0.1-0.3,0.1-0.4,0.2c-0.1,0-0.1,0-0.2,0
			c-0.1,0-0.1,0-0.2,0c-0.1,0-0.1,0-0.2-0.1c-0.1,0-0.1,0-0.1,0c-0.2,0-0.3-0.1-0.5-0.1c-0.5-0.2-0.8-0.3-1.3-0.5
			c-0.1-0.1-0.2-0.2-0.4-0.3c-0.1,0-0.2-0.1-0.3-0.1c0,0-0.1-0.1-0.3-0.2c-0.1,0-0.2-0.1-0.3-0.2c-0.1-0.1-0.3-0.1-0.4-0.1
			c-0.2-0.1-0.2-0.2-0.4-0.3c0,0,0-0.2,0-0.4c0.1,0,0.2,0,0.3,0.1c0.1,0,0.1,0.1,0.2,0.1c0.1,0,0.2,0.1,0.5,0.1c0.1,0,0.1,0,0.2-0.1
			c0,0,0.1,0,0.1,0c0,0,0.1,0,0.1-0.1c0,0,0.1,0,0.2,0c0.1-0.1,0.2-0.2,0.3-0.3c0.1-0.1,0.3-0.1,0.3-0.2c0-0.1,0-0.1,0-0.1
			c0.1,0,0.2-0.1,0.3-0.1c0,0,0-0.1,0.1-0.1c0,0,0.1-0.1,0.1-0.1c0,0,0,0,0,0c0.1,0,0.2-0.3,0.2-0.4c0-0.1,0.2-0.2,0.2-0.2
			c0,0,0-0.1,0.1-0.1c0,0,0.1-0.1,0.1-0.3c0,0,0,0,0,0c0.1,0,0.1-0.2,0.2-0.5c0,0,0,0,0.1,0c0,0,0-0.1,0-0.1c0-0.1,0-0.1-0.1-0.2
			c0-0.1,0-0.1,0-0.2c0-0.1-0.2-0.1-0.5-0.2c-0.1-0.1-0.1-0.1-0.2-0.1c0,0,0,0,0,0c0,0-0.1,0-0.1,0c-0.2,0-0.4,0.1-0.6,0.1
			c-0.2,0-0.3,0.1-0.4,0.1c-0.2,0-0.3,0.2-0.5,0.3c-0.1,0-0.2,0.1-0.4,0.1c0,0,0,0,0,0c-0.1,0-0.1,0.1-0.1,0.1c0,0-0.1,0.1-0.1,0.1
			c0,0-0.1,0.1-0.1,0.1c-0.1,0.1-0.1,0.1-0.1,0.1c-0.1,0-0.1,0.1-0.2,0.1c-0.2,0.2-0.2,0.3-0.4,0.5c-0.1,0.2-0.2,0.4-0.3,0.6
			c0,0,0,0,0,0.1c0,0.2-0.1,0.3-0.1,0.5c0,0.1,0,0.2,0,0.3c-0.1,0.2-0.1,0.4-0.1,0.5c0,0,0.1,0.1,0.1,0.1c0,0.1,0,0.1,0,0.2
			c0,0.1,0,0.2,0,0.3c0,0,0,0.1,0,0.1c0,0.1,0,0.1,0,0.2c-0.1,0.1-0.1,0.2-0.1,0.2c0.1,0.1,0.1,0.1,0.1,0.2c0,0.1,0,0.2,0,0.3
			c0,0.1,0.1,0.1,0.1,0.2c0,0.1,0,0.3,0,0.4c0,0,0,0,0,0.1c0,0,0.1,0.1,0.1,0.1c0,0.1,0,0.2-0.2,0.3c-0.1,0-0.2,0-0.2-0.2
			c0-0.1-0.1-0.1-0.1-0.1c0-0.1,0-0.1,0-0.2c-0.1-0.2-0.1-0.3-0.2-0.4c0,0,0-0.1,0-0.1c-0.1-0.2-0.1-0.3-0.2-0.4c0-0.1,0-0.1,0-0.2
			c0-0.1,0-0.1,0-0.1c-0.1-0.2-0.1-0.4-0.2-0.5c0-0.2-0.1-0.2-0.1-0.2c0-0.1,0-0.1-0.1-0.2c0,0,0-0.1,0-0.1c0-0.1-0.1-0.2-0.1-0.3
			c0-0.1,0-0.1,0-0.1c0-0.1-0.1-0.1-0.1-0.1c0-0.2-0.1-0.2-0.1-0.4c-0.1-0.2-0.1-0.3-0.2-0.5c0-0.1-0.1-0.1-0.1-0.1
			c0-0.1,0-0.1,0-0.1c0,0,0-0.1-0.1-0.1c-0.1-0.3-0.2-0.4-0.3-0.6c-0.1-0.1-0.1-0.2-0.2-0.3c0,0,0-0.1,0-0.1c0-0.2,0-0.3-0.1-0.4
			c0-0.1-0.1-0.1-0.1-0.2c0-0.1-0.1-0.2-0.1-0.3c-0.1-0.1-0.1-0.2-0.1-0.2c-0.1-0.2,0-0.3,0.2-0.3c0,0,0,0,0.1,0.1c0,0,0,0,0.1-0.1
			c0,0.1,0,0.1,0,0.2c0.1,0.1,0.1,0.2,0.2,0.3c0,0.1,0,0.2,0,0.4c0.1,0.2,0.1,0.3,0.2,0.4c0.1,0.1,0.1,0.1,0.1,0.2
			c0,0.1,0,0.1,0,0.2c0.1,0.1,0.1,0.2,0.1,0.3c0,0.1,0,0.2,0,0.3c0.1,0.1,0.1,0.1,0.1,0.2c0,0,0,0.1,0,0.1c0,0.1,0.1,0.1,0.1,0.1
			c0,0.1,0,0.2,0.1,0.3c0.1,0.3,0.1,0.5,0.2,0.8c0,0.1,0.1,0.1,0.1,0.2c0,0.1,0,0.1,0,0.2c0,0.1,0.1,0.1,0.1,0.2c0,0.1,0,0.2,0,0.2
			c0.1,0,0.2,0,0.2,0c0-0.1,0-0.2,0.1-0.3c0,0,0,0,0-0.1c0,0,0-0.3,0.1-0.6c0.1-0.4,0.2-0.7,0.3-1c0.1,0,0.1-0.1,0.1-0.1
			c0,0,0,0,0,0c0.2-0.2,0.3-0.3,0.3-0.3c0,0,0.1-0.1,0.1-0.1c0,0,0.1-0.1,0.1-0.1c0,0,0.1-0.1,0.1-0.1c0,0,0.1,0,0.1-0.1
			c0,0,0.1-0.1,0.1-0.1c0.1,0,0.2-0.1,0.3-0.2c0.1-0.1,0.2-0.2,0.5-0.4c0.2-0.1,0.3-0.1,0.5-0.2c0.4-0.1,0.6-0.1,1-0.2
			c0.1,0,0.1,0,0.2,0c0.1,0,0.1,0,0.3,0c0.4,0.2,0.6,0.3,0.7,0.3c0,0,0,0-0.1-0.1c0.1,0.1,0.2,0.2,0.3,0.3c0,0,0,0.1,0,0.1
			c0.1,0,0.1,0.1,0.2,0.2c0,0.1,0,0.2-0.1,0.3c0,0,0,0.1,0,0.1c0,0.2,0,0.3,0,0.4c-0.1,0.1-0.1,0.2-0.1,0.3c0,0-0.1,0-0.1,0
			c0,0,0,0.1-0.1,0.2c0,0.1-0.1,0.1-0.1,0.2c-0.1,0-0.2,0.1-0.2,0.2c-0.1,0-0.1,0.1-0.1,0.2c-0.1,0.1-0.2,0.1-0.3,0.3c0,0,0,0,0,0
			c0,0,0,0,0,0c0,0-0.4,0.3-1.1,0.8c-0.1,0-0.2,0-0.2,0c-0.1,0-0.1,0.1-0.1,0.2c0,0,0,0,0,0c0,0,0,0,0,0.1c0.1,0,0.1,0,0.1,0.1
			c0,0.1,0.1,0.1,0.1,0.2c0,0.1,0.1,0.1,0.3,0.1c0.1,0.1,0.2,0.2,0.3,0.3c0.2,0,0.2,0,0.4,0.1c0,0,0,0,0,0.1c0.1,0,0.1,0,0.2,0
			c0,0,0.1,0.1,0.1,0.1c0,0,0,0,0.1,0c0.2,0.1,0.3,0.1,0.5,0.2c0.2,0,0.3,0,0.5,0c0.1,0,0.2,0,0.3,0c0.1,0,0.1-0.1,0.2-0.1
			c0,0,0.1,0,0.1-0.1c0.1-0.1,0.2-0.1,0.4-0.2c0.1-0.1,0.2-0.2,0.2-0.2c0.1-0.2,0.1-0.3,0.1-0.5c0-0.1,0-0.1,0.1-0.1
			c0,0,0-0.1,0.1-0.3c0,0,0.1,0,0.1,0C251.5,430.2,251.6,430.2,251.6,430.2z"/>
		<path class="st14" d="M256,429c0.1,0.1,0.1,0.1,0.1,0.2c0,0,0,0.1-0.1,0.2c-0.1,0.1-0.1,0.2-0.1,0.4c0,0-0.1,0-0.1,0
			c0,0.1-0.1,0.2-0.1,0.3c-0.1,0-0.1,0-0.2,0.1c-0.1,0.1-0.2,0.2-0.3,0.3c0,0.1,0,0.1,0,0.1c0,0-0.1,0-0.1,0c0,0.1-0.1,0.1-0.1,0.1
			c-0.1,0-0.1,0-0.2,0c0,0,0,0,0,0.1c0,0-0.1,0-0.1,0c-0.1,0-0.2,0.1-0.2,0.2c0,0-0.1,0-0.1,0c-0.1,0.1-0.2,0.1-0.2,0.1
			c-0.1,0-0.2,0-0.3,0c0,0-0.1,0-0.2,0.1c0,0-0.1,0-0.1,0c-0.2,0-0.4,0-0.5-0.1c0-0.1,0-0.1,0-0.1c-0.1,0-0.1,0-0.2-0.1
			c0,0,0-0.1-0.1-0.1c0,0-0.1-0.1-0.2-0.1c0,0,0-0.1,0-0.1c-0.1-0.2-0.2-0.3-0.3-0.5c0-0.2,0-0.2-0.1-0.4c0-0.1,0-0.1,0-0.2
			c0-0.1,0-0.1-0.1-0.2c0-0.1,0-0.1,0-0.2c0-0.1,0-0.1-0.1-0.1c0,0,0.1-0.1,0.1-0.2c0-0.1,0-0.1,0-0.2c0-0.1-0.1-0.2-0.1-0.3
			c0,0,0.1-0.1,0.1-0.1c-0.1,0-0.1-0.1-0.1-0.1c0-0.1,0.1-0.2,0.1-0.2c-0.1-0.1-0.1-0.2-0.2-0.3c0-0.1,0-0.2,0-0.3
			c0.1,0.1,0.1,0.1,0.2,0.1c0,0,0.1,0,0.3-0.1c0,0,0,0,0-0.1c0-0.1,0-0.1,0.1-0.2c0-0.2,0.1-0.4,0.2-0.6c0.1-0.1,0.1-0.2,0.1-0.3
			c0,0,0,0,0.1,0c0-0.1,0-0.1,0-0.1c0,0,0,0,0.1,0c0-0.1,0-0.2,0.1-0.2c0.1-0.1,0.2-0.2,0.3-0.4c0,0,0.1,0,0.1,0c0,0,0-0.1,0.1-0.2
			c0.1-0.1,0.2-0.1,0.2-0.1c0,0,0.1,0,0.1,0c0.1,0,0.1,0,0.1,0c0,0,0,0,0.1,0c0,0,0.1,0,0.1,0c0.1,0.1,0.2,0.2,0.3,0.1c0,0,0,0,0,0
			c0,0.1,0.1,0.1,0.1,0.1c0,0,0,0-0.1,0c0.2,0,0.3,0.2,0.3,0.4c0,0.1,0,0.1,0,0.1c0,0.1,0.1,0.2,0.1,0.3c0,0,0,0-0.1,0.1
			c0,0.2-0.1,0.2-0.1,0.4c-0.1,0.1-0.1,0.2-0.2,0.3c0,0.1,0,0.1,0,0.2c-0.3,0.3-0.5,0.5-0.7,0.6c0,0,0,0.1-0.1,0.1c0,0-0.1,0-0.1,0
			c-0.1,0.1-0.2,0.1-0.3,0.2c-0.1,0-0.1,0-0.2,0c-0.1,0.1-0.1,0.1-0.2,0.2c-0.1,0-0.1,0-0.1,0c0,0-0.1,0-0.3,0
			c-0.1,0.1-0.1,0.3-0.1,0.5c0,0,0,0.1-0.1,0.1c0,0.1,0,0.3,0,0.3c0,0,0,0-0.1,0.1c0.1,0.2,0.1,0.2,0.2,0.4c0,0,0,0-0.1,0.1
			c0,0.1,0,0.1,0,0.1c0,0.1,0,0.1,0,0.2c0,0,0,0.1,0.1,0.2c0,0.1,0.1,0.2,0.2,0.2c0,0.1,0,0.1,0.2,0.2c0.1,0.1,0.2,0.1,0.4,0.1
			c0,0,0,0,0,0.1c0.1,0,0.2,0,0.4,0c0.2,0,0.3-0.1,0.5-0.1c0.1,0,0.2-0.1,0.3-0.1c0.1-0.1,0.2-0.2,0.3-0.2c0-0.1,0-0.1,0.1-0.2
			c0,0,0.1,0,0.1,0c0,0,0,0,0-0.1c0.2-0.1,0.3-0.2,0.3-0.2c0,0,0,0,0-0.1c0-0.1,0.1-0.1,0.1-0.1c0,0,0,0,0-0.1
			c0.2-0.1,0.3-0.2,0.3-0.4C255.8,429,255.9,429,256,429z M254.3,426.5c0,0,0.1-0.1,0.2-0.2c0-0.1,0-0.1,0-0.1
			c0.1-0.2,0.1-0.3,0.1-0.3c0,0,0-0.1,0-0.2c0-0.1-0.1-0.2-0.2-0.3c-0.1,0-0.2,0-0.3,0c-0.1,0-0.1,0-0.1,0.1c0,0-0.1,0-0.1,0
			c-0.1,0-0.1,0.1-0.1,0.1c-0.1,0-0.2,0.1-0.4,0.2c0,0,0,0.1,0,0.1c0,0,0,0-0.1,0c0,0,0,0,0,0c0,0,0,0,0,0c0,0,0,0,0,0c0,0,0,0,0,0
			c0,0,0,0,0,0.1c0,0,0,0,0,0.1s0,0.1-0.1,0.1c0,0.1,0,0.1-0.1,0.1c-0.1,0.1-0.1,0.2-0.1,0.4c0,0-0.1,0.1-0.1,0.1c0,0,0,0.1,0,0.2
			c0,0.1-0.1,0.3-0.2,0.6c0,0,0.1,0,0.1,0c0,0,0,0.1,0.1,0.1c0.1,0,0.1,0,0.2,0c0.1-0.1,0.2-0.2,0.4-0.2c0,0,0,0,0-0.1
			c0.1,0,0.1,0,0.1,0c0,0,0.1,0,0.1-0.1c0.1,0,0.1,0,0.2-0.1c0-0.1,0-0.1,0.1-0.2c0,0,0.1,0,0.1,0c0-0.1,0-0.1,0-0.1
			C254.1,426.8,254.2,426.7,254.3,426.5C254.3,426.6,254.3,426.5,254.3,426.5z"/>
		<path class="st14" d="M271.5,427.8C271.5,427.9,271.4,427.9,271.5,427.8c-0.1,0.1-0.1,0.1-0.2,0.1c0,0.1,0,0.1-0.1,0.2
			c-0.1,0-0.1,0.1-0.1,0.1c0,0,0,0,0,0c0,0,0,0,0,0c0,0.1-0.1,0.1-0.1,0.1c-0.1,0-0.1,0.1-0.1,0.1c0,0-0.1,0-0.1,0c0,0,0,0.1,0,0.1
			c-0.1,0.1-0.1,0.1-0.1,0.1c0,0-0.1,0-0.2,0c-0.1,0.1-0.2,0.1-0.3,0.1c-0.1,0-0.2,0-0.4-0.1c0,0-0.1-0.1-0.1-0.1c0,0-0.1,0-0.1,0
			c0-0.1-0.1-0.1-0.2-0.2c0,0,0-0.1,0-0.1c-0.1,0-0.2-0.1-0.2-0.2c0,0,0-0.1,0-0.1c-0.1,0-0.1-0.1-0.2-0.1c0-0.1-0.1-0.2-0.1-0.4
			c0-0.1-0.1-0.1-0.1-0.2c0,0,0,0,0-0.1c0-0.2-0.1-0.2-0.1-0.4c0-0.1,0-0.1,0-0.2c0-0.2-0.1-0.3-0.1-0.4c0-0.1,0-0.1,0-0.2
			c0-0.1,0-0.2,0-0.4c0-0.2,0-0.3-0.1-0.5c-0.1,0.1-0.1,0.1-0.2,0.2c-0.1,0.2-0.2,0.3-0.3,0.4c0,0.1-0.1,0.2-0.1,0.3
			c-0.2,0.1-0.3,0.2-0.3,0.4c-0.1,0-0.1,0.2-0.1,0.3c0,0-0.1,0.1-0.1,0.2c0,0.1-0.1,0.1-0.1,0.1c0,0,0,0.1,0,0.1c0,0,0,0,0,0
			c-0.1,0.1-0.2,0.3-0.3,0.4c0,0-0.1,0.1-0.1,0.2c-0.1,0.1-0.2,0.2-0.3,0.4c-0.1,0-0.1,0.1-0.2,0.2c0,0.1-0.1,0.1-0.1,0.1
			c-0.1,0-0.1,0.1-0.1,0.1c0,0,0,0,0,0.1c-0.1,0-0.2,0-0.4,0.1c-0.1,0-0.1,0-0.2-0.1c0-0.1,0-0.1,0-0.2c0-0.1-0.1-0.1-0.1-0.1
			c0-0.1,0-0.1,0-0.1c-0.1-0.2-0.1-0.2-0.1-0.4c0,0,0-0.1,0-0.1c0,0,0-0.1-0.1-0.2c0-0.2,0-0.2,0-0.4c0,0,0-0.1-0.1-0.1
			c0-0.1,0-0.1,0-0.2c0,0,0-0.1,0-0.1c0,0,0,0,0-0.1c0,0,0-0.1-0.1-0.1c0-0.1,0.1-0.1,0.1-0.2c0-0.1-0.1-0.2-0.1-0.4
			c0,0,0-0.1,0-0.1c0-0.2,0-0.3,0-0.4c0-0.1-0.1-0.2-0.1-0.3c0-0.1,0-0.1,0-0.2c0-0.1,0-0.1-0.1-0.2c-0.1-0.2-0.2-0.3-0.2-0.3
			c0-0.1-0.1-0.1-0.1-0.1c0,0,0,0-0.1,0c0,0-0.1,0.1-0.3,0.2c-0.1,0.1-0.1,0.1-0.2,0.2c-0.1,0.1-0.1,0.1-0.2,0.2
			c-0.1,0.2-0.2,0.3-0.3,0.5c0,0.1,0,0.1,0,0.1c-0.1,0.1-0.1,0.1-0.2,0.2c0,0.1,0,0.1-0.1,0.2c-0.1,0-0.1,0.1-0.1,0.2
			c0,0.1-0.1,0.2-0.1,0.2c0,0-0.1,0-0.2,0.1c0,0.1,0,0.1,0,0.2c0,0.1-0.1,0.1-0.1,0.2c0,0.1-0.1,0.1-0.1,0.2
			c-0.1,0.1-0.1,0.1-0.1,0.3c-0.1,0-0.1,0.1-0.1,0.2c0,0.1-0.1,0.1-0.1,0.1c0,0.1,0,0.1,0,0.2c0,0,0,0,0,0c-0.1,0.1-0.2,0.1-0.2,0.2
			c0,0,0,0,0,0.1c-0.1,0.1-0.2,0.1-0.2,0.2c0,0.1-0.1,0.2-0.1,0.2c0,0,0,0,0,0.1c0,0.1,0,0.1,0,0.1c0,0-0.1,0.1-0.2,0.2
			c-0.1,0.1-0.1,0.1-0.2,0.1c-0.1,0-0.1-0.1-0.2-0.3c0,0,0,0,0-0.1c0-0.1,0-0.1-0.1-0.1c0-0.1,0-0.1,0-0.2c0-0.1,0-0.1,0-0.2
			c0-0.1-0.1-0.2-0.1-0.3c0-0.1,0-0.1,0-0.2c0-0.1,0-0.1,0-0.2c0,0,0,0,0,0c0-0.1,0-0.2,0-0.2c0,0,0-0.1,0-0.1c0,0,0-0.1,0-0.2
			c0-0.1,0-0.1,0-0.2c0-0.1,0-0.1,0-0.2c0-0.1,0.1-0.1,0.1-0.2c0,0-0.1-0.1-0.1-0.1c0,0,0-0.1,0-0.1c0,0,0,0,0-0.1
			c0,0,0-0.1,0.1-0.2c0-0.1,0.1-0.1,0.1-0.2c0-0.1-0.1-0.1-0.1-0.2c0,0,0-0.1,0-0.1c-0.1-0.2-0.1-0.2-0.1-0.4c0-0.1,0-0.1,0-0.2
			c0-0.1-0.1-0.2-0.1-0.3c0-0.1,0-0.1,0-0.2c0-0.1-0.1-0.1-0.1-0.2c0.1-0.2,0.2-0.3,0.3-0.3c0,0,0,0,0.1,0c0,0.1,0,0.1,0.1,0.2
			c0.1,0,0.2,0.1,0.2,0.2c0,0.1,0,0.2,0,0.3c0,0.1,0,0.1,0.1,0.1c-0.1,0.1-0.1,0.2-0.1,0.3c0,0,0,0,0,0c0.1,0.2,0.1,0.4,0.1,0.6
			c0,0.2,0,0.3,0,0.5c0,0.1,0,0.1,0,0.1c0,0.1,0,0.1,0.1,0.1c0,0,0,0,0,0.1c0,0,0,0,0.1,0.1c-0.1,0.1-0.1,0.1-0.1,0.2
			c0,0,0,0.1,0,0.1c0,0.1,0,0.1-0.1,0.1c0,0.1,0.1,0.2,0.1,0.3c0,0.1,0,0.1,0,0.1c0,0.1,0,0.2,0,0.2c0,0.1,0,0.1,0,0.1
			c0,0.1,0,0.1,0,0.1c0.1,0.1,0.1,0.1,0.1,0.1c0,0,0,0.1-0.1,0.1c0.1,0,0.1,0,0.1,0.1c0.1-0.1,0.1-0.2,0.2-0.3c0-0.1,0-0.1,0-0.2
			c0,0,0.1-0.1,0.1-0.1c0,0,0-0.1,0.1-0.1c0-0.1,0.1-0.1,0.1-0.3c0,0,0,0,0.1-0.1c0,0,0.1-0.1,0.1-0.2c0-0.1,0.1-0.2,0.2-0.2
			c0,0,0-0.1,0.1-0.1c0,0,0.1-0.1,0.1-0.1c0,0,0.1-0.1,0.1-0.2c0.1-0.1,0.1-0.2,0.1-0.3c0,0,0-0.1,0-0.1c0,0,0.1-0.1,0.1-0.2
			c0.1-0.1,0.1-0.2,0.2-0.3c0,0,0.1-0.1,0.1-0.2c0.1-0.1,0.1-0.3,0.2-0.3c0.1-0.1,0.1-0.2,0.1-0.2c0.1,0,0.1-0.1,0.1-0.1
			c0.1,0,0.2-0.1,0.2-0.2c0,0,0,0,0,0c0,0,0.1-0.1,0.1-0.2c0.1-0.1,0.2-0.2,0.3-0.2c0,0,0.1,0,0.3,0c0,0,0,0.1,0,0.1c0,0,0,0,0,0.1
			c0,0,0.1,0,0.1,0c0,0,0.1,0.1,0.2,0.3c0,0.1,0,0.1,0,0.2c0.1,0,0.1,0.1,0.1,0.1c0,0.1,0,0.1,0,0.2c0.1,0.2,0.2,0.3,0.2,0.5
			c0,0.1,0,0.1,0,0.2c0,0.1,0,0.1,0.1,0.2c0,0.1-0.1,0.1-0.1,0.1c0,0.1,0.1,0.2,0.1,0.4c0,0.1,0,0.2,0,0.3c0,0.1,0,0.2,0.1,0.3
			c0,0,0,0.1,0,0.1c0,0,0,0.1,0,0.1c0,0,0,0,0,0c0.1,0.3,0.1,0.5,0.1,0.6c0,0,0,0.1,0,0.1c0,0,0,0-0.1,0.1c0.1,0.1,0.1,0.2,0.1,0.3
			c0.1,0,0.1,0,0.2,0.1c0.2-0.3,0.4-0.4,0.6-0.7c0,0,0.1-0.1,0.1-0.2c0.1-0.1,0.1-0.2,0.1-0.3c0,0,0.1-0.1,0.1-0.2
			c0-0.1,0.1-0.2,0.2-0.2c0-0.1,0-0.1,0-0.1c0,0,0.1-0.1,0.2-0.2c0,0,0,0,0,0c0-0.1,0.1-0.2,0.3-0.4c0-0.1,0.1-0.3,0.2-0.3
			c0.1-0.1,0.2-0.2,0.2-0.3c0.1-0.1,0.1-0.1,0.1-0.2c0.1-0.1,0.1-0.2,0.1-0.3c0.2,0,0.3-0.2,0.4-0.5c0.1,0,0.2-0.1,0.2-0.3
			c0.1,0,0.1-0.1,0.2-0.1c0.1,0,0.1,0.1,0.2,0.1c0,0,0,0-0.1,0.1c0,0,0.1,0,0.1,0.1c-0.1,0-0.1,0.1-0.1,0.1c0,0,0,0.1,0.1,0.1
			c0,0.1-0.1,0.1-0.1,0.2c0,0.2,0,0.3-0.1,0.6c0,0,0.1,0,0.1,0.1c-0.1,0.1-0.1,0.2-0.1,0.4c0,0.1,0,0.1,0,0.2c0,0,0,0,0,0.1
			c0,0.1,0,0.1,0,0.2c0,0,0,0-0.1,0.1c0,0,0,0,0,0.1c0,0,0,0.1,0,0.1c0,0,0.1,0.1,0.1,0.2c0,0,0,0,0,0.1c0,0,0,0,0,0.1
			c0,0,0,0,0,0.1c0,0.1,0,0.3,0.1,0.5c0,0.1,0.1,0.2,0.1,0.4c0.1,0,0.1,0,0.2,0.1c0,0.1,0,0.2,0.1,0.3c0.1,0,0.2,0.1,0.2,0.2
			c0.1,0,0.1,0,0.2,0.1c0.1,0,0.1,0,0.2,0c0.1,0,0.1,0,0.2,0c0,0,0.1,0,0.2,0c0.1,0,0.1-0.1,0.2-0.1c0,0,0.2-0.1,0.3-0.1
			c0.1,0,0.1-0.2,0.2-0.3c0.1,0,0.1,0,0.2-0.1c0,0,0-0.1,0.1-0.1c0.1,0,0.1,0,0.2,0C271.5,427.8,271.5,427.8,271.5,427.8z"/>
		<path class="st14" d="M276.1,428c0.1,0.1,0.1,0.2,0.1,0.2c0,0-0.1,0.1-0.1,0.2c-0.1,0.1-0.2,0.2-0.2,0.3c0,0-0.1,0-0.1,0
			c-0.1,0.1-0.1,0.1-0.2,0.2c-0.1,0-0.1,0-0.2,0c-0.2,0.1-0.2,0.1-0.4,0.2c0,0,0,0.1-0.1,0.1c0,0-0.1,0-0.1,0
			c-0.1,0-0.1,0.1-0.1,0.1c-0.1,0-0.1,0-0.2,0c0,0,0,0,0,0.1c0,0-0.1,0-0.1,0c-0.1,0-0.2,0-0.3,0.1c0,0,0,0-0.1-0.1
			c-0.1,0-0.2,0-0.2,0c-0.1,0-0.2,0-0.2-0.1c0,0-0.1,0-0.2,0c0,0,0,0-0.1-0.1c-0.2,0-0.4-0.1-0.5-0.2c0-0.1,0-0.1,0-0.1
			c-0.1,0-0.1-0.1-0.2-0.1c0-0.1,0-0.1,0-0.1c0,0-0.1-0.1-0.1-0.2c0,0,0-0.1,0-0.1c-0.1-0.2-0.1-0.3-0.1-0.6c0-0.2,0-0.2,0-0.4
			c0-0.1,0-0.1,0.1-0.2c0-0.1,0-0.2,0-0.3c0-0.1,0-0.1,0.1-0.2c0-0.1,0-0.1,0-0.2c0.1,0,0.1-0.1,0.1-0.1c0-0.1,0-0.1,0.1-0.2
			c0-0.1,0-0.2,0-0.3c0.1,0,0.1,0,0.1-0.1c0,0-0.1-0.1-0.1-0.1c0.1-0.1,0.1-0.1,0.1-0.2c0-0.1,0-0.2-0.1-0.4c0-0.1,0-0.2,0.1-0.2
			c0.1,0.1,0.1,0.1,0.2,0.1c0,0,0.1,0,0.3,0c0,0,0-0.1,0-0.1c0-0.1,0-0.1,0.1-0.1c0.1-0.2,0.2-0.4,0.3-0.5c0.1-0.1,0.1-0.1,0.1-0.2
			c0,0,0,0,0.1,0c0,0,0-0.1,0.1-0.1c0,0,0.1,0,0.1,0c0,0,0.1-0.1,0.2-0.2c0.1,0,0.2-0.1,0.4-0.2c0,0,0.1,0,0.1,0
			c0,0,0.1-0.1,0.1-0.1c0.1-0.1,0.3-0.1,0.3-0.1c0,0,0.1,0,0.1,0.1c0.1,0,0.1,0,0.1,0c0,0,0,0,0.1,0.1c0,0,0.1,0,0.1,0
			c0,0.1,0.1,0.2,0.3,0.2c0,0,0,0,0,0c0,0.1,0,0.1,0.1,0.1c0,0,0,0-0.1,0c0.2,0.1,0.2,0.2,0.2,0.5c0,0.1,0,0.1-0.1,0.1
			c0,0.1,0,0.2,0,0.3c0,0,0,0-0.1,0c-0.1,0.1-0.1,0.2-0.2,0.3c-0.1,0.1-0.2,0.2-0.3,0.3c0,0.1,0,0.1,0,0.2c-0.4,0.2-0.6,0.3-0.9,0.4
			c0,0-0.1,0.1-0.1,0.1c0,0-0.1,0-0.1,0c-0.1,0.1-0.2,0.1-0.3,0.2c-0.1,0-0.1,0-0.2,0c-0.1,0-0.2,0.1-0.3,0.1c0,0-0.1,0-0.1-0.1
			c0,0-0.1,0-0.3-0.1c-0.1,0.1-0.2,0.2-0.2,0.4c0,0-0.1,0.1-0.1,0.1c0,0.1-0.1,0.2-0.1,0.3c0,0,0,0-0.1,0c0,0.2,0,0.3,0.1,0.4
			c0,0,0,0-0.1,0.1c0,0.1,0,0.1,0,0.1c0,0.1,0,0.1,0,0.2c0,0,0,0.1,0,0.2c0,0.1,0,0.2,0.1,0.2c0,0.1,0,0.1,0.1,0.2
			c0.1,0.1,0.2,0.1,0.3,0.2c0,0,0,0,0,0.1c0.1,0,0.2,0,0.3,0.1c0.2,0,0.3,0,0.5,0.1c0.1,0,0.2,0,0.3,0c0.1-0.1,0.2-0.1,0.3-0.1
			c0-0.1,0.1-0.1,0.1-0.1c0.1,0,0.1,0,0.1,0c0,0,0,0,0-0.1c0.2,0,0.3-0.1,0.3-0.1c0,0,0,0,0-0.1c0,0,0.1-0.1,0.1-0.1c0,0,0,0,0-0.1
			c0.2,0,0.3-0.1,0.4-0.3C276,428,276,428,276.1,428z M275.2,425.2c0,0,0.1,0,0.2-0.1c0-0.1,0-0.1,0.1-0.1c0.1-0.2,0.2-0.3,0.2-0.3
			c0,0,0-0.1,0-0.2c0-0.1,0-0.2-0.1-0.4c-0.1,0-0.2-0.1-0.3-0.1c-0.1,0-0.1,0-0.1,0c0,0,0,0-0.1,0c-0.1,0-0.1,0-0.2,0.1
			c-0.1,0-0.2,0-0.4,0.1c0,0,0,0,0,0.1c0,0,0,0-0.1,0c0,0,0,0,0,0c0,0,0,0,0,0c0,0,0,0,0,0c0,0,0,0,0,0c0,0,0,0,0,0s0,0,0,0.1
			c0,0,0,0-0.1,0.1c0,0-0.1,0.1-0.1,0.1c-0.1,0.1-0.1,0.2-0.2,0.3c0,0-0.1,0-0.1,0.1c0,0-0.1,0.1-0.1,0.1c0,0.1-0.2,0.3-0.4,0.5
			c0,0,0.1,0,0.1,0.1c0,0,0,0.1,0,0.1c0.1,0,0.1,0,0.2,0.1c0.1-0.1,0.3-0.1,0.4-0.1c0,0,0,0,0-0.1c0,0,0.1,0,0.1,0
			c0,0,0.1,0,0.1-0.1c0.1,0,0.1,0,0.2,0c0-0.1,0.1-0.1,0.1-0.1c0,0,0.1,0,0.1,0c0,0,0-0.1,0.1-0.1
			C274.9,425.4,275,425.4,275.2,425.2C275.2,425.3,275.2,425.2,275.2,425.2z"/>
		<path class="st14" d="M285.7,430.6c0,0,0,0.1,0,0.2c0,0.2-0.2,0.2-0.4,0.2c-0.1,0-0.2-0.1-0.2-0.4c0-0.2,0-0.2,0-0.4
			c0,0,0-0.1,0-0.1c0-0.1,0-0.1,0.1-0.2c0-0.1,0-0.2-0.1-0.3c0.1-0.1,0.1-0.1,0.1-0.2c0-0.1,0-0.2,0-0.3c0-0.1,0-0.1,0.1-0.1
			c0-0.1,0-0.1,0-0.2c0-0.1,0-0.1,0.1-0.2c0-0.1,0-0.1,0-0.2c0,0,0.1-0.1,0.1-0.1c0-0.2,0.1-0.3,0.1-0.4c0.1-0.2,0.1-0.3,0.1-0.6
			c0-0.2,0-0.2,0-0.4c0-0.1,0.1-0.1,0.1-0.1c0-0.2,0-0.3,0-0.5c0-0.1,0-0.1,0-0.1c-0.1-0.1-0.1-0.1-0.2-0.1
			c-0.1,0.1-0.2,0.1-0.3,0.1c0,0-0.1,0-0.2,0c-0.1,0-0.2,0-0.3,0c-0.2,0.2-0.3,0.2-0.5,0.4c-0.1,0-0.1,0-0.2,0
			c-0.2,0.2-0.3,0.2-0.4,0.4c0,0,0,0,0,0.1c0,0-0.1,0-0.1,0c0,0,0,0.1-0.1,0.1c-0.1,0-0.1,0.1-0.2,0.1c-0.1,0-0.1,0.1-0.2,0.2
			c-0.1,0.2-0.1,0.2-0.2,0.4c-0.1,0.1-0.2,0.1-0.3,0.2c0,0-0.1,0.1-0.1,0.2c-0.1,0-0.1,0.1-0.2,0.1c0,0.1-0.1,0.2-0.1,0.3
			c-0.1,0.1-0.2,0.1-0.3,0.2c0,0.1-0.1,0.2-0.1,0.3c0,0,0,0-0.1,0c-0.1,0.1-0.1,0.1-0.1,0.2c-0.1,0.1-0.2,0.2-0.3,0.3
			c-0.2,0.1-0.3,0.2-0.4,0.3c0,0,0,0-0.1,0c0,0-0.1,0-0.1,0c0,0,0,0,0-0.1c0-0.2,0-0.3-0.1-0.4c0-0.3,0-0.4,0.1-0.7
			c0-0.1,0-0.1,0-0.2c0-0.1,0-0.1,0.1-0.2c0-0.2,0-0.2,0.1-0.4c0,0,0,0,0.1,0c0.1-0.4,0.2-0.6,0.3-1c0-0.1,0-0.1,0.1-0.2
			c0-0.1,0-0.1,0-0.1c0,0,0,0,0.1,0c0,0,0-0.1,0-0.1c0.1-0.2,0.1-0.2,0.1-0.4c0-0.1,0.1-0.1,0.1-0.2c0-0.1,0-0.1,0-0.2
			c0,0,0,0,0.1-0.1c0,0,0,0,0-0.1c0-0.2,0.1-0.2,0.1-0.4c0,0,0,0-0.1-0.1c0,0,0,0,0.1-0.1c0-0.2,0-0.3,0.1-0.5c0-0.1,0-0.1-0.1-0.2
			c0,0,0.1,0,0.1,0c0,0,0-0.1,0-0.1c0-0.2,0-0.3-0.1-0.5c0-0.1,0-0.1,0-0.2c0,0,0-0.1,0-0.1c0-0.2,0-0.2,0-0.4
			c0-0.2-0.1-0.4-0.2-0.5c0.1-0.1,0.1-0.1,0.2-0.2c0,0,0,0,0,0c0.1,0,0.2,0.1,0.1,0.2c0.1,0.1,0.1,0.1,0.2,0.2c0,0.1,0,0.1,0,0.1
			c0,0,0.1,0.1,0.1,0.2c0,0,0,0.1-0.1,0.1c0,0.1,0,0.1,0.1,0.2c0,0-0.1,0.1-0.1,0.1c0,0,0.1,0.1,0.1,0.1c0,0.1,0,0.2-0.1,0.3
			c0,0.2-0.1,0.4-0.1,0.6c0,0.1,0,0.2,0,0.3c0,0,0,0.1-0.1,0.1c0,0.1,0,0.1,0,0.2c0,0.1-0.1,0.1-0.1,0.2c0,0.1,0,0.2,0,0.3
			c-0.1,0.1-0.1,0.2-0.1,0.3c0,0,0,0.1,0,0.1c-0.1,0.3-0.1,0.4-0.2,0.7c0,0,0,0.1,0,0.1c0,0,0,0-0.1,0c-0.1,0.2-0.1,0.3-0.1,0.4
			c0,0-0.1,0.1-0.1,0.1c0,0.1,0,0.1,0,0.2c0,0,0,0,0,0.1c0,0.2-0.1,0.2-0.1,0.4c-0.1,0.1-0.1,0.2-0.2,0.3c0.1,0.1,0.1,0.2,0.1,0.2
			c-0.1,0.1-0.1,0.1-0.1,0.1c0,0.1,0,0.2,0,0.3c0.1,0,0.1,0,0.1-0.1c0-0.1,0-0.1,0.1-0.1c0.1-0.1,0.2-0.2,0.3-0.3
			c0.1-0.1,0.1-0.2,0.1-0.3c0.2,0,0.2-0.2,0.3-0.2c0,0,0.1-0.1,0.3-0.2c0-0.1,0.1-0.1,0.1-0.1c0,0,0.1-0.1,0.2-0.2
			c0-0.1,0-0.1,0-0.2c0,0,0,0,0,0c0,0,0.1,0,0.1-0.1c0,0,0,0,0,0c0.1-0.1,0.2-0.1,0.3-0.2c0.1,0,0.1-0.1,0.1-0.1c0,0,0,0,0,0
			c0.1,0,0.2-0.1,0.2-0.2c0,0,0,0,0,0c0,0,0,0,0-0.1c0,0,0.1,0,0.1,0c0-0.1,0-0.1,0-0.2c0,0,0.1,0,0.1,0c0,0,0-0.1,0-0.1
			c0,0,0.1,0,0.1,0c0,0,0,0,0-0.1c0.1,0,0.1,0,0.1,0c0,0,0,0,0,0c0,0,0,0,0,0c0,0,0-0.1,0-0.1c0,0,0,0,0,0c0.1,0,0.2,0,0.2-0.2
			c0.1,0,0.1,0,0.2-0.1c0,0,0,0,0,0.1c0.1-0.1,0.1-0.1,0.2-0.2c0,0,0.1,0,0.1,0c0,0,0-0.1,0.1-0.1c0,0,0.1,0,0.1,0c0,0,0.1,0,0.2,0
			c0.1,0,0.1,0,0.1,0c0,0,0,0,0-0.1c0.2,0,0.3-0.1,0.4-0.1c0.1,0,0.1,0.1,0.2,0.2c0.1,0,0.1,0.1,0.1,0.1c0,0,0.1,0.1,0.1,0.1
			c0,0.1,0,0.2,0.1,0.4c-0.1,0.4-0.1,0.5-0.2,0.9c-0.1,0.2-0.1,0.3-0.1,0.5c0,0.1,0,0.1,0,0.1c-0.1,0.3-0.1,0.5-0.2,0.9
			c0,0.1,0,0.1-0.1,0.1c0,0.1,0,0.2-0.1,0.3c0,0.1,0,0.2,0,0.3c0,0.1-0.1,0.2-0.1,0.3c0,0,0,0.2,0,0.4c0,0.1,0.1,0.1,0.1,0.2
			C285.6,430.5,285.6,430.5,285.7,430.6C285.7,430.6,285.7,430.6,285.7,430.6z"/>
		<path class="st14" d="M292.1,432.4c-0.1,0-0.1,0-0.2,0c0,0,0,0.1-0.1,0.1c-0.1,0-0.1,0-0.2,0c0,0,0,0-0.1-0.1c0,0-0.1,0-0.1,0
			c-0.1-0.1-0.1-0.2-0.1-0.3c0-0.1,0-0.2,0.1-0.3c0,0,0-0.1-0.1-0.1c0.1-0.1,0.1-0.2,0.1-0.3c0.1-0.3,0.1-0.5,0.2-0.8
			c0.1-0.1,0.1-0.1,0.1-0.2c0-0.1,0-0.1-0.1-0.2c0.1,0,0.1,0,0.1,0c0-0.1,0-0.1,0-0.1c0,0,0-0.1,0.1-0.1c0,0,0,0,0.1,0
			c0-0.1,0-0.1,0-0.1c0,0,0,0,0.1,0c0-0.1,0-0.1,0.1-0.2c0,0,0-0.1,0.1-0.1c0,0-0.1-0.1-0.1-0.1c-0.1,0-0.1,0-0.2,0
			c-0.1,0.1-0.2,0.1-0.2,0.1c0,0,0,0.1-0.1,0.1c-0.1,0-0.1,0-0.2,0c0,0.1,0,0.1-0.1,0.2c0,0-0.1,0-0.1,0c0,0,0,0.1,0,0.1
			c-0.1,0-0.2,0.1-0.3,0.1c0,0-0.1,0-0.1,0c-0.1,0.1-0.2,0.1-0.3,0.2c-0.2,0.1-0.2,0.1-0.4,0.2c-0.1,0-0.1,0.1-0.1,0.1
			c-0.1,0.1-0.2,0.1-0.4,0.2c0,0-0.1,0.1-0.1,0.1c-0.2,0-0.3,0.1-0.4,0.1c-0.2,0.1-0.3,0.2-0.5,0.3c-0.1,0-0.1,0-0.2,0
			c0,0-0.1,0-0.2,0.1c0,0,0,0,0,0c-0.1,0-0.1-0.1-0.1-0.2c-0.3-0.2-0.4-0.4-0.4-0.6c0,0,0.1,0,0.1,0c0-0.2,0-0.3,0-0.5
			c0,0,0,0-0.1-0.1c0,0,0,0,0.1-0.1c0,0,0-0.1,0.1-0.1c0-0.1,0.1-0.1,0.1-0.2c0.1-0.2,0.1-0.2,0.2-0.4c0,0,0,0,0-0.1
			c0,0,0-0.1,0.1-0.1c0-0.1,0-0.1,0-0.1c0,0,0-0.1,0.1-0.1c0,0,0,0,0.1,0c0.1-0.1,0.2-0.1,0.2-0.2c0,0,0-0.1,0-0.1c0,0,0,0,0-0.1
			c0,0,0,0,0.1,0c-0.1,0-0.1-0.1-0.1-0.1c0,0,0.1,0,0.2,0c0,0,0,0,0,0c0-0.1,0.1-0.2,0.1-0.2c0.1-0.1,0.1-0.1,0.1-0.1
			c0,0-0.1,0-0.1,0c0.1-0.1,0.1-0.1,0.2-0.2c0,0,0,0,0-0.1c0-0.2,0.1-0.3,0.3-0.4c0-0.1,0-0.1,0-0.2c0,0,0,0,0.1,0c0,0,0-0.1,0-0.1
			c0,0,0,0,0.1,0c0-0.1,0-0.1,0.1-0.2c0,0,0.1,0,0.1,0c0,0,0,0,0-0.1c0,0,0.1-0.1,0.2-0.1c0.1-0.1,0.2-0.1,0.3-0.2c0,0,0,0,0,0
			c0.1,0,0.2,0,0.2,0c0,0,0,0,0-0.1c0.2,0.1,0.3,0.1,0.3,0c0.1,0,0.2,0,0.3,0c0.3,0.1,0.4,0.2,0.7,0.3c0,0,0,0,0,0
			c0.2,0.1,0.3,0.2,0.6,0.3c0,0,0,0,0.1,0c0.1,0,0.1,0.1,0.1,0.1c0,0,0,0,0.1,0c0,0.1,0,0.1,0.1,0.1c0,0,0,0,0.1,0
			c0,0.1,0.1,0.1,0.1,0.1c0.1,0.1,0.2,0.1,0.3,0.2c0,0,0,0.1,0,0.1c0.2,0,0.3,0,0.6,0c0,0.1,0,0.1-0.1,0.2c0,0,0,0-0.1,0
			c0,0,0.1,0.1,0.1,0.1c0,0,0,0,0,0c0,0.1,0,0.2,0,0.3c-0.1,0-0.1,0-0.2,0.1c0,0.1-0.1,0.1-0.1,0.2c0,0.1-0.1,0.1-0.2,0.2
			c0,0.1,0,0.1,0,0.2c0,0,0,0-0.1,0.1c-0.1,0-0.2,0.2-0.1,0.2c0,0,0,0,0,0.1c0,0,0,0.1-0.1,0.1c0,0,0,0,0,0.1c0,0,0,0.1-0.1,0.1
			c0,0,0,0.1,0,0.1c0,0-0.1,0-0.1,0.1c0,0.1,0,0.2-0.1,0.3c0,0,0,0-0.1,0c0,0,0,0,0,0.1c0,0,0,0-0.1,0c0,0,0,0,0,0
			c0,0,0,0.1-0.1,0.1c0,0,0,0.1,0,0.1c0,0-0.1,0-0.1,0.1c0,0-0.1,0.1-0.1,0.1c0,0.1,0,0.1,0,0.2c-0.1,0-0.1,0.1-0.2,0.1
			c0,0.1,0,0.2,0.1,0.2c-0.1,0.1-0.2,0.2-0.3,0.4c0,0,0.1,0,0.1,0.1c0,0,0,0,0,0.1c0,0,0,0,0,0.1c0,0.1-0.1,0.1-0.2,0.2
			c0,0,0,0,0.1,0c0,0.1,0,0.1,0,0.2c0.1,0,0.2,0.1,0.3,0.1c0,0.1,0,0.1,0,0.2c0,0,0,0-0.1,0c0,0,0,0.1,0.1,0.2c0,0,0,0,0,0
			c0,0,0,0,0,0C292,432.2,292.1,432.3,292.1,432.4z M292.8,428c0-0.1,0-0.1,0-0.2c-0.1-0.1-0.1-0.1-0.2-0.1
			c-0.1-0.2-0.2-0.2-0.3-0.4c-0.1,0-0.1-0.1-0.1-0.1c0,0-0.1,0-0.1,0c0,0,0,0-0.1-0.1c-0.1,0-0.1,0-0.2-0.1c0,0,0-0.1,0-0.1
			c-0.1,0-0.1,0-0.2,0c0,0,0,0-0.1-0.1c0,0-0.1,0-0.1,0c-0.1,0-0.1-0.1-0.2-0.1c-0.1,0-0.3,0-0.5,0c0,0,0,0,0,0.1
			c-0.1,0-0.1,0-0.1,0c0,0,0,0,0,0c-0.1,0-0.1,0-0.2,0c0,0,0,0,0,0.1c-0.1,0-0.3,0.1-0.4,0.3c-0.1,0.2-0.3,0.4-0.4,0.5
			c0,0,0.1,0,0.1,0.1c-0.1,0-0.1,0-0.2,0.1c0,0,0,0.1,0,0.1c-0.1,0.1-0.2,0.2-0.2,0.3c0,0,0,0,0,0.1c-0.1,0-0.1,0.1-0.1,0.1
			c0,0.1,0,0.1-0.1,0.2c-0.1,0-0.1,0.1-0.2,0.2c0,0,0,0-0.1,0c0,0.1,0,0.1-0.1,0.2c0,0,0,0-0.1,0c0,0.1-0.1,0.2-0.1,0.3
			c0,0.1,0,0.1,0,0.2c-0.1,0-0.1,0-0.2,0.1c0,0,0,0.1,0,0.1c0,0-0.1,0-0.1,0.1c0,0.1,0,0.2,0,0.3c-0.1,0-0.1,0.1-0.2,0.1
			c0,0.1,0,0.2-0.1,0.3c0,0,0,0.1-0.1,0.1c0,0,0,0,0.1,0.1c0,0,0,0.1,0,0.1c0.1,0,0.1,0.1,0.2,0.2c0.1,0,0.2,0,0.3,0
			c0.1-0.1,0.2-0.1,0.3-0.1c0,0,0-0.1,0-0.1c0.1,0,0.2,0,0.2,0c0,0,0,0,0-0.1c0,0,0.1-0.1,0.1-0.1c0,0,0,0,0,0c0,0,0,0,0.1,0
			c0.1-0.1,0.2-0.1,0.3-0.2c0,0,0,0-0.1,0c0.1,0,0.1,0,0.2-0.1c0.1,0,0.1,0,0.2,0c0.1-0.1,0.1-0.1,0.2-0.2c0.2,0,0.3-0.1,0.4-0.2
			c0,0,0,0,0.1,0c0.1,0,0.1-0.1,0.2-0.1c0,0,0-0.1,0-0.1c0.1,0,0.1,0,0.1,0c0,0,0-0.1,0-0.1c0,0,0,0,0.1-0.1
			c0.1-0.1,0.1-0.1,0.2-0.1c0,0,0,0,0.1,0c0-0.1,0.1-0.1,0.2-0.2c0-0.1,0.1-0.1,0.1-0.1c0.1,0,0.1,0,0.1,0c0,0,0.1,0,0.1,0
			c0-0.1,0-0.1,0.1-0.1c0,0,0,0,0,0c0,0,0,0,0-0.1c0.1-0.1,0.2-0.1,0.3-0.1c0,0,0-0.1,0.1-0.1c0,0,0.1,0,0.1,0c0,0,0-0.1,0-0.1
			c0.1-0.1,0.1-0.1,0.2-0.2c0.1,0,0.1,0,0.2-0.1C292.7,428.2,292.7,428.2,292.8,428z"/>
		<path class="st14" d="M298.7,433.7c-0.1,0-0.1,0.1-0.2,0.1c0,0,0,0,0.1,0.1c-0.1,0-0.2,0.1-0.2,0.1c0,0.1-0.1,0.1-0.1,0.1
			c-0.1,0-0.1,0-0.2-0.1c0,0,0,0-0.1,0.1c0,0-0.1,0-0.3,0c0,0,0,0-0.1-0.1c-0.1,0-0.2,0-0.4,0c0,0,0,0-0.1-0.1c0,0,0,0.1-0.1,0.1
			c-0.1-0.1-0.1-0.1-0.2-0.2c0,0-0.1,0-0.2,0c0,0,0,0,0-0.1c-0.1-0.1-0.2-0.1-0.4-0.2c-0.1,0-0.1,0-0.2-0.1c0-0.1,0-0.1-0.1-0.1
			c-0.1,0-0.2,0-0.3-0.1c0-0.1-0.1-0.1-0.1-0.1c-0.1,0-0.2,0-0.2,0c-0.1,0-0.1-0.1-0.2-0.1c-0.1,0-0.1,0.1-0.1,0.1c0,0,0,0,0,0.1
			c0,0.1,0,0.1,0,0.1c0,0-0.1,0.1-0.1,0.2c0,0.1,0,0.1,0,0.2c-0.1,0-0.1,0-0.1,0.1c0,0.2-0.1,0.3-0.1,0.5c-0.1,0.1-0.1,0.2-0.2,0.3
			c0,0.2-0.1,0.2-0.1,0.4c-0.1,0-0.1,0.1-0.2,0.1c0,0.1,0,0.1,0,0.2c-0.1,0.1-0.1,0.1-0.2,0.2c0,0,0.1,0,0.1,0.1c0,0,0,0.1,0,0.1
			c-0.1,0-0.1,0-0.1,0.1c0,0,0,0.1,0,0.1c0,0,0,0,0,0c-0.1,0.1-0.2,0.1-0.2,0.2c-0.1,0.4-0.2,0.5-0.4,0.9c-0.1,0.1-0.1,0.2-0.2,0.2
			c0,0-0.1,0-0.2-0.1c0-0.1,0.1-0.1,0.1-0.2c0-0.2,0.1-0.3,0.1-0.5c0.1-0.1,0.1-0.1,0.2-0.1c0.1-0.1,0.1-0.2,0.2-0.3
			c0-0.2,0-0.2,0.1-0.4c0.1,0,0.1,0,0.1-0.1c0,0,0-0.1,0-0.3c0.1,0,0.1-0.1,0.1-0.1c0-0.1,0-0.2,0-0.3c0.1-0.1,0.1-0.1,0.2-0.2
			c0-0.1,0-0.1,0-0.2c0.1,0,0.1,0,0.1,0c-0.1-0.1-0.1-0.2-0.1-0.2c0-0.1,0.1-0.2,0.3-0.4c0-0.1,0-0.1,0-0.2c0-0.1,0.1-0.1,0.1-0.2
			c0,0,0,0,0-0.1c0,0,0,0,0.1,0c0-0.2,0.1-0.3,0.1-0.4c0.1-0.2,0.2-0.3,0.3-0.5c0-0.1,0-0.1,0-0.1c0.1,0,0.1,0,0.2,0
			c0,0-0.1,0-0.1-0.1c0-0.1,0-0.1,0-0.1c0,0,0,0-0.1-0.1c0,0,0,0,0.1,0c0,0,0,0,0,0c0,0,0,0,0.1,0c0,0,0,0,0-0.1
			c0.1,0,0.1,0,0.1,0.1c0,0,0-0.1,0-0.1c0,0,0,0,0.1,0c0,0,0,0,0-0.1c-0.1,0-0.1-0.1-0.1-0.1c0-0.1,0.1-0.1,0.1-0.1
			c0-0.1,0-0.1,0-0.1c0,0-0.1-0.1-0.1-0.1c0,0,0,0,0.1,0c0,0,0,0,0,0c0,0,0,0,0,0c0,0,0.1,0,0.1,0c0-0.1,0-0.1-0.1-0.1
			c0-0.1,0.1-0.1,0.1-0.1c0-0.1,0-0.1,0-0.1c0,0,0,0,0-0.1c0-0.1,0-0.1,0-0.2c0.1-0.1,0.1-0.1,0.1-0.2c0-0.1,0-0.1,0-0.2
			c0.1-0.1,0.1-0.1,0.1-0.2c0,0,0-0.1,0-0.1c0-0.1,0-0.1,0.1-0.2c0-0.1,0-0.1,0-0.1c0-0.1,0-0.1,0.1-0.2c0-0.1,0-0.2,0-0.3
			c0,0-0.1,0-0.1,0c0,0-0.1-0.1-0.1-0.1c-0.1,0-0.2,0-0.3,0.1c0,0,0,0,0,0c0,0-0.1,0-0.1,0c-0.1,0-0.1,0-0.2-0.1c0,0,0,0-0.1,0.1
			c-0.1,0-0.1,0-0.2,0c-0.1,0-0.1,0-0.2,0.1c-0.1,0-0.1,0-0.2-0.1c-0.1,0.1-0.1,0.1-0.2,0.1c-0.1-0.1-0.1-0.1-0.1-0.1
			c0,0,0,0-0.1,0.1c-0.2-0.1-0.2-0.3-0.2-0.3c0,0,0,0,0.1,0c0.1,0,0.1,0,0.1,0c0,0,0-0.1,0-0.1c0.2,0,0.4,0,0.5,0.1c0,0,0,0,0,0
			c0.1,0,0.1,0,0.2-0.1c0,0,0.2,0,0.4,0c0,0,0,0,0,0c0.1,0,0.1,0,0.2-0.1c0.1,0.1,0.2,0.1,0.3,0.1c0.1,0,0.1,0,0.2,0c0,0,0,0,0,0
			c0.1-0.1,0.1-0.1,0.1-0.2c0.1,0,0.1,0,0.1,0c0,0.2,0.1,0.3,0.2,0.4c0,0,0.1,0,0.1-0.1c0,0,0,0.1,0.1,0.1c0,0,0.1,0,0.1,0
			c0.1,0.1,0.3,0.2,0.4,0.2c0.1,0.1,0.2,0.2,0.3,0.2c0.1,0.1,0.1,0.1,0.2,0.2c0,0,0.1,0,0.1,0c0,0,0,0.1,0,0.1
			c0.1,0.1,0.1,0.1,0.1,0.1c0,0,0,0,0,0c0,0,0.1,0,0.1,0.1c0,0.1,0,0.1,0.1,0.1c0,0.1,0.1,0.1,0.1,0.2c0.1,0.1,0.1,0.1,0.2,0.2
			c0,0,0,0,0,0.1c0.1,0,0.1,0.1,0.1,0.1c0,0,0,0,0,0c0.1,0.1,0.1,0.2,0.1,0.3c0,0.1,0.1,0.1,0.1,0.1c0,0.1,0,0.1,0,0.2
			c0,0,0,0,0.1,0c0,0,0,0.1,0,0.1c0,0,0,0.1,0.1,0.1c0,0,0,0.1,0,0.2c0,0,0.1,0,0.1,0.1c0,0.1,0,0.3,0.1,0.4c0,0.1,0,0.1-0.1,0.1
			c0,0.1,0,0.1,0.1,0.2c0,0.1,0,0.1-0.1,0.1c0,0,0,0.1,0,0.2c0,0.1,0,0.2,0,0.3c0,0,0,0-0.1,0c0,0,0,0.1,0,0.1c0,0,0,0.1,0,0.1
			c0,0,0,0,0.1,0c-0.1,0.1-0.1,0.1-0.2,0.2C298.7,433.5,298.7,433.6,298.7,433.7z M298.5,433.2C298.5,433.2,298.5,433.1,298.5,433.2
			c0-0.1,0.1-0.1,0.1-0.2c0-0.1,0-0.1,0-0.2c0,0,0.1,0,0.1-0.1c0-0.1,0-0.1,0-0.2c0-0.1,0-0.1,0-0.1c0-0.1,0-0.1,0-0.2
			c0-0.1,0-0.1,0-0.2c0-0.2-0.1-0.3-0.1-0.5c0-0.1-0.1-0.1-0.1-0.2c0-0.1,0-0.2,0-0.3c-0.1-0.1-0.1-0.1-0.2-0.1
			c0-0.1-0.1-0.2-0.1-0.3c0,0,0,0,0,0c-0.1,0-0.1-0.1-0.1-0.1c-0.1,0-0.1,0-0.1,0c0-0.1-0.1-0.2-0.1-0.3c0,0-0.1,0-0.1,0
			c0-0.1,0-0.1,0-0.1c-0.1,0-0.1-0.1-0.2-0.1c-0.1,0-0.1,0-0.2-0.1c0,0,0,0,0-0.1c0,0-0.1,0-0.1,0c0,0,0-0.1,0-0.1c0,0-0.1,0-0.1,0
			c0,0,0-0.1,0-0.1c-0.1,0-0.1,0-0.1,0c-0.2-0.1-0.2-0.1-0.4-0.2c-0.1,0-0.2,0-0.2,0.1c0,0,0,0,0,0.1c0,0,0,0.1,0,0.2
			c-0.1,0.1-0.1,0.1-0.1,0.2c0,0.1,0,0.2,0,0.3c0,0,0,0.1,0.1,0.1c-0.1,0.1-0.1,0.1-0.2,0.2c0,0.1,0,0.1,0,0.2
			c-0.1,0.2-0.1,0.2-0.2,0.4c0,0,0,0.1,0,0.1c0,0-0.1,0.1-0.1,0.1c0,0.1,0,0.1,0.1,0.2c0,0,0,0-0.1,0c0,0.1,0,0.1,0,0.1
			c0,0,0,0.1,0.1,0.1c-0.1,0-0.1,0-0.1,0.1c0,0.1,0,0.1,0,0.1c-0.1,0-0.1,0.1-0.2,0.1c0,0.1,0,0.1,0,0.2c0,0.1,0,0.1-0.1,0.2
			c0,0.1,0,0.1,0,0.2c0.2,0.1,0.3,0.1,0.5,0.2c0,0,0,0,0,0.1c0.1,0,0.1-0.1,0.1-0.1c0,0,0,0.1,0.1,0.2c0,0,0.1,0,0.1,0
			c0,0,0.1,0,0.1,0c0,0,0.1,0.1,0.2,0.1c0,0,0.1,0,0.1,0c0,0,0,0,0,0.1c0.1,0,0.1,0,0.2,0.1c0.1,0,0.1,0.1,0.1,0.1
			c0.1,0,0.1,0,0.2,0c0,0,0,0,0,0c0.3,0.1,0.5,0.1,0.6,0.1c0,0,0,0,0,0c0.1,0,0.1,0,0.1-0.1c0,0,0,0,0.1,0.1c0,0,0-0.1,0.1-0.1
			c0,0,0.1,0,0.1,0c0,0,0-0.1,0.1-0.1c0-0.1,0-0.1,0-0.1c0,0,0.1,0,0.1,0C298.5,433.3,298.5,433.3,298.5,433.2
			C298.5,433.2,298.5,433.2,298.5,433.2z"/>
		<path class="st14" d="M304.4,436.5c-0.1,0-0.1,0-0.2,0.1c0,0,0,0.1,0.1,0.1c-0.1,0-0.2,0.1-0.2,0.1c0,0-0.1,0.1-0.1,0.1
			c-0.1,0-0.1,0-0.2-0.1c0,0-0.1,0-0.1,0.1c0,0-0.1,0-0.3,0c0,0,0,0-0.1-0.1c-0.1,0-0.2,0-0.4-0.1c0,0,0-0.1-0.1-0.1
			c0,0,0,0-0.1,0.1c-0.1-0.1-0.1-0.2-0.2-0.3c0,0-0.1,0-0.2,0c0,0,0,0,0-0.1c-0.1-0.1-0.2-0.1-0.4-0.2c-0.1,0-0.1,0-0.2-0.1
			c0-0.1,0-0.1-0.1-0.1c-0.1,0-0.2-0.1-0.3-0.1c0-0.1,0-0.1-0.1-0.2c-0.1,0-0.2,0-0.2,0c-0.1,0-0.1-0.1-0.2-0.1
			c-0.1,0-0.1,0-0.1,0.1c0,0,0,0,0,0.1c0,0.1,0,0.1,0,0.1c0,0-0.1,0.1-0.2,0.2c0,0.1,0,0.1,0,0.2c-0.1,0-0.1,0-0.2,0.1
			c0,0.2-0.1,0.3-0.2,0.4c-0.1,0.1-0.1,0.2-0.2,0.3c-0.1,0.2-0.1,0.2-0.1,0.4c-0.1,0-0.1,0.1-0.2,0.1c0,0.1,0,0.1,0,0.2
			c-0.1,0.1-0.1,0.1-0.2,0.2c0,0,0.1,0.1,0.1,0.1c0,0,0,0.1-0.1,0.1c-0.1,0-0.1,0-0.1,0.1c0,0,0,0.1,0,0.1c0,0,0,0,0,0
			c-0.1,0.1-0.2,0.1-0.2,0.2c-0.2,0.3-0.3,0.5-0.4,0.8c-0.1,0.1-0.1,0.2-0.2,0.1c0,0-0.1,0-0.2-0.1c0-0.1,0.1-0.1,0.1-0.2
			c0.1-0.2,0.1-0.3,0.2-0.5c0.1-0.1,0.1-0.1,0.2-0.1c0.1-0.1,0.1-0.2,0.2-0.3c0-0.2,0.1-0.2,0.1-0.4c0.1,0,0.1,0,0.1-0.1
			c0,0,0-0.1,0-0.3c0.1,0,0.1-0.1,0.2-0.1c0-0.1,0-0.2,0-0.3c0.1-0.1,0.1-0.1,0.2-0.1c0-0.1,0-0.1,0.1-0.2c0.1,0,0.1,0,0.1,0
			c-0.1-0.1-0.1-0.2-0.1-0.3c0,0,0.1-0.2,0.3-0.3c0-0.1,0-0.1,0-0.2c0.1-0.1,0.1-0.1,0.1-0.2c0,0,0,0,0-0.1c0,0,0,0,0.1,0
			c0.1-0.2,0.1-0.2,0.1-0.4c0.1-0.2,0.2-0.3,0.3-0.5c0-0.1,0-0.1,0-0.2c0.1,0,0.1,0,0.2,0c0,0,0,0-0.1-0.1c0-0.1,0-0.1,0-0.1
			c0,0,0,0-0.1-0.1c0,0,0,0,0.1,0c0,0,0,0,0,0c0,0,0,0,0.1,0c0,0,0,0,0-0.1c0.1,0,0.1,0.1,0.1,0.1c0,0,0-0.1,0-0.1c0,0,0,0,0.1,0
			c0,0,0,0,0-0.1c-0.1-0.1-0.1-0.1-0.1-0.1c0,0,0.1-0.1,0.1-0.1c0-0.1,0-0.1,0-0.1c0,0-0.1-0.1,0-0.1c0,0,0,0,0.1,0c0,0,0,0,0,0
			c0,0,0,0,0,0c0,0,0,0,0.1,0c0-0.1,0-0.1,0-0.1c0-0.1,0.1-0.1,0.1-0.1c0-0.1,0-0.1,0.1-0.1c0,0,0,0,0.1-0.1c0-0.1,0-0.1,0-0.2
			c0.1-0.1,0.1-0.1,0.1-0.2c0-0.1,0-0.1,0-0.2c0.1-0.1,0.1-0.1,0.1-0.2c0,0,0-0.1,0-0.1c0-0.1,0.1-0.1,0.1-0.2c0-0.1,0-0.1,0-0.1
			c0-0.1,0.1-0.1,0.1-0.2c0-0.1,0-0.2,0-0.3c0,0-0.1,0-0.1-0.1c0,0,0-0.1-0.1-0.1c-0.1,0-0.2,0-0.3,0c0,0,0,0,0,0c0,0-0.1,0-0.1,0
			c-0.1,0-0.1-0.1-0.2-0.1c0,0,0,0-0.1,0c-0.1,0-0.1,0-0.2-0.1c-0.1,0-0.1,0-0.2,0c-0.1,0-0.1-0.1-0.1-0.1c-0.1,0-0.1,0.1-0.2,0.1
			c-0.1-0.1-0.1-0.1-0.1-0.1c0,0,0,0-0.1,0.1c-0.1-0.2-0.2-0.3-0.2-0.4c0,0,0,0,0.1,0c0.1,0,0.1,0,0.1,0c0,0,0-0.1,0-0.1
			c0.2,0,0.4,0,0.5,0.1c0,0,0,0,0,0c0.1,0,0.1,0,0.2,0c0,0,0.2,0,0.4,0c0,0,0,0,0,0.1c0.1,0,0.1,0,0.2-0.1c0.1,0.1,0.2,0.1,0.3,0.2
			c0.1,0,0.1,0,0.2,0c0,0,0,0,0,0c0.1-0.1,0.1-0.1,0.2-0.2c0,0,0.1,0,0.1,0.1c0,0.2,0.1,0.3,0.2,0.4c0,0,0.1,0,0.1-0.1
			c0,0,0,0.1,0.1,0.1c0,0,0.1,0,0.1,0c0.1,0.1,0.3,0.2,0.3,0.3c0.1,0.1,0.2,0.2,0.2,0.2c0.1,0.1,0.1,0.1,0.2,0.2c0,0,0.1,0,0.1,0
			c0,0,0,0.1,0,0.1c0.1,0.1,0.1,0.1,0.1,0.2c0,0,0,0,0,0c0,0,0.1,0.1,0.1,0.1c0,0.1,0,0.1,0,0.2c0,0.1,0,0.1,0.1,0.2
			c0.1,0.1,0.1,0.1,0.2,0.2c0,0,0,0,0,0.1c0.1,0,0.1,0.1,0.1,0.1c0,0,0,0,0,0c0.1,0.1,0.1,0.2,0.1,0.3c0,0.1,0.1,0.1,0.1,0.1
			c0,0.1,0,0.1,0,0.2c0,0,0,0,0.1,0c0,0,0,0.1-0.1,0.1c0,0,0,0.1,0,0.1c0,0,0,0.1,0,0.2c0,0,0.1,0,0.1,0.1c-0.1,0.1-0.1,0.3,0,0.4
			c0,0.1,0,0.1-0.1,0.1c0,0.1,0,0.1,0,0.2c0,0,0,0.1-0.1,0.1c0,0,0,0.1,0,0.2c0,0.1,0,0.2-0.1,0.3c0,0,0,0-0.1,0c0,0,0,0.1,0,0.1
			c0,0,0,0,0,0.1c0,0,0,0,0.1,0c-0.1,0.1-0.1,0.1-0.2,0.2C304.4,436.3,304.4,436.4,304.4,436.5z M304.2,436
			C304.3,435.9,304.3,435.9,304.2,436c0.1-0.1,0.1-0.1,0.1-0.1c0-0.1,0-0.1,0-0.2c0,0,0.1,0,0.1-0.1c0-0.1,0-0.1,0-0.2
			c0-0.1,0-0.1,0.1-0.1c0-0.1,0-0.1,0-0.2c0-0.1,0-0.1,0-0.2c0-0.2,0-0.3,0-0.5c0-0.1,0-0.1-0.1-0.2c0-0.1,0-0.2,0-0.3
			c-0.1-0.1-0.1-0.1-0.1-0.1c0-0.1,0-0.2-0.1-0.3c0,0,0,0,0,0c-0.1,0-0.1-0.1-0.1-0.1c-0.1,0-0.1,0-0.1-0.1c0-0.1,0-0.2-0.1-0.3
			c0,0-0.1,0-0.1,0c0-0.1,0-0.1,0-0.1c-0.1-0.1-0.1-0.1-0.2-0.1c-0.1,0-0.1,0-0.2-0.1c0,0,0,0,0-0.1c0,0-0.1,0-0.1,0
			c0,0,0-0.1,0-0.1c0,0-0.1,0-0.1,0c0,0,0-0.1,0-0.1c-0.1,0-0.1,0-0.1,0c-0.2-0.1-0.2-0.2-0.4-0.3c-0.1,0-0.2,0-0.2,0.1
			c0,0,0,0,0,0.1c0,0,0,0.1-0.1,0.2c-0.1,0.1-0.1,0.1-0.2,0.2c0,0.1,0,0.2,0,0.3c0,0.1,0,0.1,0.1,0.1c-0.1,0.1-0.1,0.1-0.2,0.1
			c0,0.1,0,0.1-0.1,0.2c-0.1,0.1-0.2,0.2-0.3,0.4c0,0,0,0.1,0,0.1c-0.1,0-0.1,0.1-0.1,0.1c0,0.1,0,0.1,0.1,0.2c0,0,0,0-0.1,0
			c0,0.1,0,0.1-0.1,0.1c0,0,0,0.1,0.1,0.1c-0.1,0-0.1,0-0.1,0.1c0,0.1,0,0.1,0,0.1c-0.1,0-0.1,0-0.2,0.1c0,0.1,0,0.1-0.1,0.2
			c0,0.1-0.1,0.1-0.1,0.2c0,0.1,0,0.1,0,0.2c0.2,0.1,0.3,0.1,0.5,0.2c0,0,0,0,0,0.1c0.1,0,0.1,0,0.1,0c0,0,0,0.1,0.1,0.2
			c0,0,0.1,0,0.1,0c0,0,0.1,0,0.1,0c0,0,0.1,0.1,0.2,0.1c0,0,0.1,0,0.1,0c0,0,0,0,0,0.1c0.1,0,0.1,0.1,0.2,0.1
			c0.1,0,0.1,0.1,0.1,0.1c0.1,0,0.1,0,0.2,0c0,0,0,0,0,0c0.3,0.1,0.5,0.2,0.6,0.2c0,0,0,0,0,0c0.1,0,0.1,0,0.1,0c0,0,0,0,0.1,0.1
			c0,0,0-0.1,0.1-0.1c0,0,0.1,0,0.1,0c0,0,0-0.1,0.1-0.1c0-0.1,0-0.1,0-0.1c0,0,0.1,0,0.1,0C304.2,436,304.2,436,304.2,436
			C304.2,436,304.2,436,304.2,436z"/>
		<path class="st14" d="M312.1,440c-0.1,0-0.2,0-0.2,0.1c0,0,0,0.1-0.1,0.1c-0.1,0.2-0.1,0.2-0.2,0.4c-0.1,0.1-0.2,0.2-0.3,0.3
			c0,0.1-0.1,0.1-0.1,0.2c-0.1,0-0.1,0.1-0.2,0.1c-0.1,0.2-0.2,0.3-0.3,0.5c0,0,0,0-0.1,0c-0.1,0.1-0.1,0.2-0.2,0.4
			c-0.1,0.1-0.1,0.2-0.2,0.3c0,0.1,0,0.1,0,0.1c-0.2,0.3-0.3,0.4-0.5,0.6c0,0.1,0,0.1,0,0.2c0,0-0.1,0-0.1,0c0,0.1-0.1,0.1-0.1,0.2
			c0,0-0.1,0-0.1,0c0,0.1,0,0.1-0.1,0.2c0,0,0,0,0,0c0,0,0,0-0.1,0.1c0,0.1-0.1,0.1-0.1,0.1c-0.1,0-0.1,0-0.1,0.1c0,0,0,0.1,0,0.1
			c-0.2,0.1-0.3,0.1-0.5,0.2c-0.1,0.1-0.1,0.1-0.2,0.2c0,0,0,0-0.1-0.1c-0.1,0-0.1,0-0.2,0c-0.2,0-0.3,0.1-0.4,0.1
			c-0.1,0-0.2,0-0.3,0c-0.2,0.1-0.3,0.1-0.5,0c0,0,0,0,0,0c0,0,0,0-0.1,0c0,0,0,0-0.1,0c-0.1,0-0.2,0-0.3,0c0,0-0.1,0-0.1-0.1
			c0,0,0,0-0.1,0c-0.1,0-0.1-0.1-0.1-0.1c-0.1,0-0.2,0-0.3,0c0,0-0.1-0.1-0.1-0.1c-0.2-0.1-0.2-0.1-0.4-0.2c0,0-0.1,0-0.1-0.1
			c0,0,0,0-0.1,0c-0.1-0.1-0.2-0.2-0.3-0.3c0,0-0.1,0-0.1-0.1c0-0.1,0-0.1-0.1-0.2c0,0,0,0-0.1,0c-0.1-0.1-0.2-0.2-0.3-0.4
			c-0.1-0.1-0.2-0.1-0.3-0.2c0-0.1,0-0.1,0-0.1c-0.1-0.1-0.1-0.1-0.2-0.1c0-0.1,0-0.1,0-0.2c0,0-0.1-0.1-0.1-0.1c0-0.1,0-0.2,0-0.3
			c0-0.1-0.1-0.1-0.1-0.2c0-0.1,0-0.2,0-0.3c0,0,0-0.1-0.1-0.1c-0.1-0.1-0.1-0.1-0.1-0.2c0.1,0,0.1-0.1,0.1-0.1c0-0.1,0-0.1,0-0.2
			c0,0,0,0,0-0.1c0-0.1,0.1-0.2,0.1-0.3c0-0.1,0-0.1,0.1-0.2c0-0.1,0.1-0.1,0.2-0.2c0,0,0.1-0.1,0.1-0.1c0,0,0,0,0,0
			c0,0,0.1,0,0.1,0c0,0,0,0,0.1,0c0,0,0,0,0,0c0,0,0.1-0.1,0.1-0.1c0,0,0.2-0.1,0.4-0.1c0.1,0,0.1,0,0.2,0.1c0.2,0,0.2,0,0.4,0
			c0.1,0.1,0.2,0.1,0.3,0.2c0.1,0,0.2,0,0.2,0c0.1,0,0.1,0.1,0,0.1c0,0,0,0,0,0c-0.1,0-0.1,0-0.2,0c-0.1,0-0.1,0-0.1,0
			c0,0-0.2,0-0.3-0.1c-0.1,0-0.1,0.1-0.2,0.1c-0.1,0-0.1-0.1-0.2-0.1c-0.2,0.1-0.3,0.1-0.5,0.2c0,0.1-0.1,0.1-0.1,0.2
			c-0.1,0-0.2,0.1-0.2,0.2c0,0,0,0-0.1,0c0,0.3,0,0.4-0.1,0.7c0.1,0.1,0.1,0.1,0.2,0.2c0,0.1,0,0.1,0,0.1c0.1,0.2,0.1,0.3,0.2,0.5
			c0,0,0.1,0.1,0.1,0.1c0,0,0.1,0.1,0.1,0.2c0,0.1,0,0.1,0.1,0.2c0.1,0,0.1,0.1,0.2,0.1c0,0.1,0,0.1,0.1,0.2c0.1,0,0.1,0.1,0.2,0.1
			c0,0,0,0.1,0,0.1c0.3,0.1,0.4,0.2,0.7,0.4c0,0,0.1,0,0.1,0c0,0,0,0,0,0c0,0,0,0.1,0,0.1c0,0,0,0,0,0c0.1,0,0.2,0,0.4,0.1
			c0,0,0,0,0.1,0c0.2,0,0.3,0.1,0.4,0.1c0,0,0,0,0,0c0.1,0,0.1,0,0.1,0c0,0,0,0,0,0c0,0,0.1,0,0.1,0c0,0,0,0,0,0
			c0-0.1,0.1-0.1,0.2,0c0,0,0,0,0,0c0,0,0,0,0.1,0c0.1,0,0.1,0,0.1,0c0,0,0,0,0,0c0,0,0.1,0,0.1,0c0.1,0,0.1,0,0.1,0c0,0,0,0,0,0
			c0.1-0.1,0.2-0.1,0.3-0.1c0.1,0,0.2-0.1,0.3-0.2c0,0,0,0,0.1,0c0.3-0.1,0.5-0.2,0.6-0.3c0,0,0,0,0,0c0.1-0.1,0.1-0.1,0.2-0.2
			c0,0,0,0,0.1,0c0.1-0.1,0.1-0.1,0.2-0.2c0,0,0.1,0,0.1,0c0-0.1,0-0.1,0-0.2c0.1,0,0.2,0,0.2,0c0,0,0,0,0-0.1c0-0.1,0-0.1,0.1-0.2
			c0,0,0,0,0,0c0.1-0.2,0.2-0.2,0.3-0.4c0.2-0.2,0.2-0.3,0.4-0.6c0-0.1,0-0.1,0-0.2c0.1-0.1,0.1-0.1,0.2-0.2
			c0.1-0.1,0.1-0.1,0.1-0.2c0.1-0.2,0.2-0.3,0.4-0.5c0-0.1,0-0.1,0.1-0.1c0,0,0.1,0,0.1-0.1c0,0,0-0.1,0-0.1c0,0,0.1,0,0.1-0.1
			c0.1-0.2,0.1-0.2,0.2-0.4c0-0.1,0-0.1-0.1-0.2c0.1,0,0.1,0,0.2,0c0,0,0-0.1,0-0.1c0.1-0.1,0.1-0.1,0.1-0.1c0,0,0-0.1,0-0.1
			c0,0,0.1-0.1,0.1-0.1c0-0.1,0-0.1,0-0.2c-0.1,0-0.1,0-0.2,0c-0.1,0-0.1,0-0.1,0.1c-0.1,0-0.1,0-0.1,0c0,0-0.1,0.1-0.1,0.1
			c-0.1,0-0.2,0-0.3,0c0,0,0,0,0,0.1c-0.1,0-0.1,0-0.2,0c0,0-0.1,0-0.1,0c0,0,0,0-0.1,0c-0.1,0-0.1,0-0.2-0.1c0,0.1-0.1,0.1-0.1,0.1
			c0,0-0.1,0-0.1-0.1c0,0-0.1,0.1-0.1,0.1c-0.2,0-0.4,0-0.6,0c-0.2,0-0.3,0-0.4,0.1c-0.1,0-0.1,0-0.2-0.1c-0.1,0-0.1,0-0.1,0
			c-0.2,0-0.2,0-0.4,0c0,0-0.1,0-0.1-0.1c0,0-0.1,0-0.3,0c0,0-0.1,0-0.1,0.1c-0.1,0-0.1,0-0.1,0c0,0-0.1,0-0.1-0.1
			c0,0-0.1,0-0.1,0.1c-0.1,0-0.1,0-0.1-0.1c-0.1,0-0.2,0-0.4,0.1c-0.1,0-0.1-0.1-0.2-0.1c-0.1,0-0.1,0-0.1,0c-0.1,0-0.2,0-0.3-0.1
			c0,0-0.1,0-0.1,0.1c-0.1,0-0.1,0-0.3-0.1c-0.2-0.1-0.3-0.2-0.3-0.3c0-0.2,0-0.3,0-0.5c0-0.1,0-0.1,0.1-0.2c0-0.2,0.1-0.3,0.1-0.5
			c0.1-0.1,0.1-0.2,0.2-0.3c0-0.1,0-0.1,0-0.1c0.1-0.1,0.1-0.1,0.2-0.2c0-0.1,0-0.1,0-0.2c0,0,0,0,0.1,0c0,0,0.1-0.1,0.1-0.1
			c0.1,0,0.1-0.1,0.2-0.1c0.1-0.1,0.1-0.1,0.1-0.2c0.1,0,0.1-0.1,0.1-0.1c0-0.1,0-0.1,0-0.1c0.2-0.2,0.2-0.2,0.4-0.4
			c0.1-0.1,0.1-0.2,0.1-0.3c0.1-0.1,0.1-0.2,0.2-0.3c0-0.2,0.1-0.3,0.1-0.5c0,0,0.1,0,0.1-0.1c0,0,0-0.1,0-0.1
			c0.1-0.1,0.1-0.1,0.2-0.1c0,0,0-0.1,0-0.1c0,0,0.1,0,0.1,0c0-0.1,0-0.1,0.1-0.1c0.1,0,0.1,0,0.2,0.1c0,0.1,0,0.2,0,0.3
			c0,0-0.1,0-0.1,0c0,0,0,0,0.1,0.1c0,0-0.1,0.1-0.1,0.1c0,0.1,0,0.1,0,0.2c0,0,0,0-0.1,0c0,0.1,0,0.1-0.1,0.2c0,0,0,0,0,0.1
			c-0.1,0-0.1,0.1-0.2,0.1c0,0.1-0.1,0.2-0.1,0.3c-0.1,0-0.1,0-0.2,0.1c0,0,0,0.1,0,0.1c-0.1,0.1-0.2,0.2-0.3,0.3
			c-0.1,0.1-0.1,0.2-0.2,0.4c0,0-0.1,0-0.1,0c-0.1,0.2-0.2,0.3-0.4,0.5c-0.1,0-0.1,0-0.2,0.1c0,0,0,0.1,0,0.1
			c-0.1,0.1-0.1,0.1-0.1,0.2c0,0.1,0,0.1,0,0.2c-0.1,0-0.1,0-0.1,0.1c0,0.1,0,0.1-0.1,0.2c0,0-0.1,0-0.1,0.1c0,0,0,0.1,0,0.1
			c0,0.1,0,0.1-0.1,0.1c0,0.1,0,0.1,0.1,0.2c0,0.1,0,0.1,0,0.1c0,0,0.1,0,0.1,0c0,0,0,0,0,0.1c0,0,0.1,0,0.1,0
			c0.1,0.1,0.1,0.1,0.2,0.2c0.1,0,0.1-0.1,0.2-0.1c0.1,0,0.2,0,0.4,0.1c0,0,0,0,0,0c0-0.1,0.1-0.1,0.2-0.1c0.1,0,0.2,0,0.3,0
			c0.1,0,0.2,0,0.3,0c0,0,0,0,0,0c0,0,0.1,0,0.1,0c0,0,0,0,0-0.1c0.1,0,0.3,0,0.5,0c0.3,0,0.5,0,0.7,0.1c0.1,0,0.2-0.1,0.3-0.1
			c0,0,0,0,0,0.1c0,0,0-0.1,0.1-0.1c0.1,0.1,0.2,0,0.3,0c0.1,0,0.1,0,0.2,0c0.1,0,0.2,0,0.2-0.1c0,0,0,0,0,0c0.2,0,0.3,0,0.4,0.1
			c0,0,0,0,0.1-0.1c0.2,0,0.4-0.1,0.5-0.1c0.1,0,0.3,0,0.4,0c0.2-0.1,0.3-0.1,0.5-0.2c0.1-0.1,0.1-0.1,0.1-0.2c0,0,0.1,0,0.1,0
			c0.1-0.1,0.1-0.1,0.1-0.2c0-0.1,0-0.1,0-0.2c0.1,0,0.1-0.1,0.1-0.1c0-0.1,0-0.1-0.1-0.1c0,0,0,0,0,0c0,0,0.1,0,0.1-0.1
			c0.1,0,0.1,0,0.2-0.1c0,0,0,0,0.1,0c0,0,0,0,0.1-0.1c0.1,0,0.1,0,0.2,0.1c0,0.2,0.1,0.2,0.1,0.4c0,0,0,0.1-0.1,0.1
			c0,0,0,0.1-0.1,0.1c0,0,0,0.1,0,0.3c0,0-0.1,0-0.1,0c0,0.1,0,0.1-0.1,0.2c0,0-0.1,0.1-0.1,0.1c0,0.1,0,0.1,0,0.2
			c0,0-0.1,0-0.1-0.1c0,0.1-0.1,0.1-0.1,0.1c-0.1,0.1-0.1,0.1-0.2,0.1c0,0.1-0.1,0.2-0.1,0.3c-0.1,0.1-0.1,0.1-0.1,0.2
			c0,0,0,0.1,0,0.1c-0.1,0.1-0.1,0.1-0.1,0.2C312.2,439.8,312.2,439.9,312.1,440z"/>
	</g>
</g>
<path class="st6" d="M167.4,464.6h1.1l-0.1,0.4C168.1,464.9,167.8,464.7,167.4,464.6z"/>
<path class="st6" d="M226.2,465.7c-1.5,0.9-3.3,1.6-5.5,2.1c0,0-9.8,3.2-16.2,3.8c-1.7,0.2-3.2,0.2-4.1-0.1c0,0-0.5,1.8-1.4,4.8
	c-8.2-2.3-16.2-5.1-23.9-8.3c7-9.3,16.8-21.6,25.9-30c4.9-4.5,9.6-7.8,13.5-8.9c0,0,3.4-1.6,7.3,0c3.4,1.3,7.1,4.8,9.3,13.6
	C231.1,442.5,237.4,459,226.2,465.7z"/>
<g>
	<g>
		<path d="M205.6,200.3c8.3-4.8,18.5-5.4,27.4-1.8c1.8,0.7,2.6-2.2,0.8-2.9c-9.6-3.9-20.8-3.1-29.7,2.1
			C202.4,198.7,204,201.3,205.6,200.3L205.6,200.3z"/>
	</g>
</g>
<g>
	<g>
		<path d="M289.5,200.3c8.3-4.8,18.5-5.4,27.4-1.8c1.8,0.7,2.6-2.2,0.8-2.9c-9.6-3.9-20.8-3.1-29.7,2.1
			C286.3,198.7,287.8,201.3,289.5,200.3L289.5,200.3z"/>
	</g>
</g>
<path class="st15" d="M227.2,122.3c0,22.7-18.4,41.1-41.1,41.1c-4.6,0-9-0.8-13.1-2.1c-7.2-2.4-13.4-6.7-18.2-12.3
	c1.7-3.1,3.6-6.1,5.7-9c0.1-0.1,0.2-0.2,0.3-0.4c0.6-0.9,1.2-1.7,1.9-2.5c0.1-0.2,0.3-0.4,0.4-0.5c2.9-3.8,6.1-7.3,9.5-10.7
	c12.6-12.4,28.5-22,46.6-27.9C224.2,104.7,227.2,113.2,227.2,122.3z"/>
<path class="st15" d="M376.4,194.4c0,1.3,0,2.5-0.1,3.8H376c-19.4,0-35.1-15.7-35.1-35.1c0-11.5,5.5-21.7,14.1-28.1
	C368.5,151.8,376.4,172.3,376.4,194.4z"/>
<path class="st15" d="M173.5,157.1c0,1.4-0.2,2.8-0.5,4.2c-1.9,7.9-9,13.8-17.4,13.8c-3.7,0-7.1-1.1-10-3c0-0.2,0.1-0.4,0.1-0.6
	c2-7.9,5.1-15.4,9.1-22.5c1.7-3.1,3.6-6.1,5.7-9C168,142.1,173.5,149,173.5,157.1z"/>
<path class="st16" d="M108.2,194.3l-16-16l16-16l16,16L108.2,194.3z M99.6,178.2l8.6,8.6l8.6-8.6l-8.6-8.6L99.6,178.2z"/>
<path class="st17" d="M333.1,99.1l-16-16l16-16l16,16L333.1,99.1z M324.5,83l8.6,8.6l8.6-8.6l-8.6-8.6L324.5,83z"/>
<path class="st4" d="M71.2,72.2l-16-16l16-16l16,16L71.2,72.2z M62.6,56.1l8.6,8.6l8.6-8.6l-8.6-8.6L62.6,56.1z"/>
<path class="st0" d="M480.9,63.6l-16-16l16-16l16,16L480.9,63.6z M472.3,47.6l8.6,8.6l8.6-8.6l-8.6-8.6L472.3,47.6z"/>
<path class="st18" d="M447.5,322.2l-16-16l16-16l16,16L447.5,322.2z M438.9,306.2l8.6,8.6l8.6-8.6l-8.6-8.6L438.9,306.2z"/>
<path class="st17" d="M472.7,495.6l-13.4-13.4l13.4-13.4l13.4,13.4L472.7,495.6z M464.4,482.2l8.2,8.2l8.2-8.2l-8.2-8.2L464.4,482.2
	z"/>
<path class="st17" d="M29,444.3l-13.4-13.4L29,417.4l13.4,13.4L29,444.3z M20.8,430.9l8.2,8.2l8.2-8.2l-8.2-8.2L20.8,430.9z"/>
<path class="st18" d="M79.7,422.7l-22.3-22.3l22.3-22.3l22.3,22.3L79.7,422.7z M67.8,400.4l11.9,11.9l11.9-11.9l-11.9-11.9
	L67.8,400.4z"/>
</svg>
